<svg width="31" height="31" viewBox="0 0 31 31" fill="none" xmlns="http://www.w3.org/2000/svg">
<path d="M30.5 4.7V3.1H31V0H0V3.1H0.5V4.7H1V26.4H0V29.5H0.5V31H30.5V29.5H31V26.4H30V4.7H30.5ZM29.5 3.1V3.6H28.5H27.5H3.6H2.6H1.6V3.1H29.5ZM22.7 19.1C22.7 19.2 22.6 19.4 22.5 19.5L22.3 19.7V19.9C22.3 20 22.2 20.2 22.1 20.3C22 20.4 21.9 20.5 21.7 20.5H21.5L21.3 20.7C21.1 20.9 20.8 20.9 20.6 20.7L20.4 20.5H20.2C20.1 20.5 19.9 20.4 19.8 20.3C19.7 20.2 19.6 20.1 19.6 19.9V19.7L19.4 19.5C19.3 19.4 19.2 19.3 19.2 19.1C19.2 19 19.2 19 19.2 18.9C19.2 18.8 19.3 18.8 19.3 18.7L19.5 18.5V18.3C19.5 18.2 19.6 18 19.7 17.9C19.8 17.8 19.9 17.7 20.1 17.7H20.3L20.5 17.5C20.7 17.3 21 17.3 21.2 17.5L21.4 17.7H21.6C21.7 17.7 21.9 17.8 22 17.9C22.1 18 22.2 18.1 22.2 18.3V18.5L22.4 18.7C22.4 18.7 22.5 18.8 22.5 18.9C22.7 19 22.7 19 22.7 19.1ZM18.9 20.1C18.9 20.4 19.1 20.7 19.3 21C19.5 21.2 19.9 21.4 20.2 21.4C20.3 21.5 20.5 21.6 20.6 21.6V21.7V22.2H16.8L17.7 24.8H18.2L18.8 26.4H3.6V19.2H18.6C18.6 19.5 18.7 19.8 18.9 20.1ZM24.1 24.8H24.6L25.5 22.2H21.7V21.7V21.6C21.9 21.5 22 21.5 22.1 21.4C22.4 21.4 22.7 21.2 23 21C23.2 20.8 23.4 20.4 23.4 20.1C23.6 19.8 23.7 19.5 23.7 19.2H27.3V26.4H23.4L24.1 24.8ZM27.4 18.1H23.5V18V17.9C23.5 17.9 23.5 17.8 23.4 17.8V17.7C23.4 17.7 23.4 17.6 23.3 17.6H26.9V5.2H4.1V17.6H19.1C19.1 17.6 19.1 17.7 19 17.7V17.8C19 17.8 19 17.9 18.9 17.9V18V18.1H3.6V4.7H27.4V18.1ZM9.7 8.1L7.6 10.2C7.5 10.3 7.4 10.4 7.2 10.4C7.1 10.4 6.9 10.3 6.8 10.2C6.6 10 6.6 9.7 6.8 9.5L8.9 7.4C9.1 7.2 9.4 7.2 9.6 7.4C9.9 7.6 9.9 7.9 9.7 8.1ZM9.8 10.3C9.8 10.4 9.7 10.6 9.7 10.7C9.6 10.8 9.5 10.8 9.3 10.8C9.1 10.8 9 10.8 8.9 10.7C8.8 10.6 8.8 10.5 8.8 10.3C8.8 10.2 8.9 10 8.9 9.9C9.1 9.7 9.4 9.7 9.6 9.9C9.8 10.1 9.8 10.2 9.8 10.3ZM8.6 11.7L7.6 12.7C7.5 12.8 7.4 12.9 7.2 12.9C7.1 12.9 6.9 12.8 6.8 12.7C6.6 12.5 6.6 12.2 6.8 12L7.8 11C8 10.8 8.3 10.8 8.5 11C8.7 11.2 8.8 11.5 8.6 11.7ZM10 8.9L11.5 7.4C11.7 7.2 12 7.2 12.2 7.4C12.4 7.6 12.4 7.9 12.2 8.1L10.6 9.7C10.5 9.8 10.4 9.9 10.2 9.9C10 9.9 10.1 9.8 10 9.7C9.8 9.5 9.8 9.1 10 8.9ZM29.5 30H1.5V29.5H29.4V30H29.5Z" fill="#FAA619"/>
<path d="M0.5 1C0.776142 1 1 0.776142 1 0.5C1 0.223858 0.776142 0 0.5 0C0.223858 0 0 0.223858 0 0.5C0 0.776142 0.223858 1 0.5 1Z" transform="translate(20.7 18.6)" fill="#FAA619"/>
</svg>
