<svg width="32" height="32" viewBox="0 0 32 32" fill="none" xmlns="http://www.w3.org/2000/svg">
<path d="M27.825 0H19.625C18.125 0 16.625 0.6 15.525 1.7L1.125 16.1C-0.375 17.6 -0.375 20 1.125 21.4L9.625 29.9C11.125 31.4 13.525 31.4 14.925 29.9L29.325 15.5C30.425 14.4 31.025 12.9 31.025 11.4V3.2C31.025 1.4 29.625 0 27.825 0ZM23.925 10.3C22.125 10.3 20.725 8.9 20.725 7.1C20.725 5.3 22.125 3.9 23.925 3.9C25.725 3.9 27.125 5.3 27.125 7.1C27.125 8.9 25.725 10.3 23.925 10.3Z" fill="#7AC943"/>
<path d="M0.6 11.6C0.2 11.6 0 11.3 0 11V0.6C0 0.2 0.3 0 0.6 0C0.9 0 1.2 0.3 1.2 0.6V10.9C1.2 11.3 0.9 11.6 0.6 11.6Z" transform="translate(13.025 11.7)" fill="#FAFAFA"/>
<path d="M1.9 3.8C0.8 3.8 0 2.9 0 1.9C0 0.900001 0.9 0 1.9 0C2.9 0 3.8 0.900001 3.8 1.9C3.8 2.9 3 3.8 1.9 3.8ZM1.9 1.2C1.5 1.2 1.3 1.5 1.3 1.8C1.3 2.2 1.6 2.4 1.9 2.4C2.3 2.4 2.5 2.1 2.5 1.8C2.5 1.5 2.2 1.2 1.9 1.2Z" transform="translate(7.825 14.3)" fill="#FAFAFA"/>
<path d="M1.9 3.8C0.8 3.8 0 2.9 0 1.9C0 0.9 0.9 0 1.9 0C3 0 3.8 0.9 3.8 1.9C3.9 2.9 3 3.8 1.9 3.8ZM1.9 1.2C1.5 1.2 1.3 1.5 1.3 1.8C1.3 2.2 1.6 2.4 1.9 2.4C2.3 2.4 2.5 2.1 2.5 1.8C2.6 1.5 2.3 1.2 1.9 1.2Z" transform="translate(15.525 16.9)" fill="#FAFAFA"/>
</svg>
