<svg width="31" height="27" viewBox="0 0 31 27" fill="none" xmlns="http://www.w3.org/2000/svg">
<path d="M0 1.1V11.7C0 12.3 0.5 12.8 1.1 12.8C1.7 12.8 2.2 12.3 2.2 11.7V1.1C2.2 0.5 1.7 0 1.1 0C0.5 0 0 0.5 0 1.1Z" transform="translate(6.8 13.2)" fill="#FAA619"/>
<path d="M3.2 26.1H5.7V13.5C5.7 13.4 5.7 13.4 5.7 13.3C5.7 7.9 10.1 3.4 15.5 3.4C20.9 3.4 25.3 7.8 25.3 13.3C25.3 13.4 25.3 13.5 25.3 13.5V26H27.8C29.6 26 31 24.5 31 22.7V16.1C31 14.6 30 13.3 28.7 12.9C28.6 5.8 22.7 0 15.5 0C8.3 0 2.4 5.8 2.3 13.1C1 13.5 0 14.7 0 16.2V22.8C0 24.6 1.4 26.1 3.2 26.1Z" fill="#FAA619"/>
<path d="M0 1.1V11.7C0 12.3 0.5 12.8 1.1 12.8C1.7 12.8 2.2 12.3 2.2 11.7V1.1C2.2 0.5 1.7 0 1.1 0C0.6 0 0 0.5 0 1.1Z" transform="translate(21.9 13.2)" fill="#FAA619"/>
</svg>
