<svg width="30" height="32" viewBox="0 0 30 32" fill="none" xmlns="http://www.w3.org/2000/svg">
<path d="M24.5 19.9C22.7 19.9 21.2 20.8 20.2 22.1L10.8 17.2C10.9 16.7 11 16.2 11 15.7C11 15.1 10.9 14.6 10.7 14.1L20 9.2C21 10.6 22.6 11.5 24.4 11.5C27.4 11.5 29.9 9 29.9 5.8C30 2.6 27.5 0 24.5 0C21.5 0 19 2.6 19 5.7C19 6.2 19.1 6.7 19.2 7.2L9.8 12.1C8.8 10.8 7.2 9.9 5.5 9.9C2.5 9.9 0 12.5 0 15.6C0 18.7 2.5 21.3 5.5 21.3C7.3 21.3 8.9 20.4 9.9 19L19.2 23.9C19.1 24.4 18.9 24.9 18.9 25.5C18.9 28.6 21.4 31.2 24.4 31.2C27.4 31.2 29.9 28.6 29.9 25.5C30 22.4 27.5 19.9 24.5 19.9Z" fill="#FF931E"/>
</svg>
