<svg width="25" height="25" viewBox="0 0 25 25" fill="none" xmlns="http://www.w3.org/2000/svg">
<rect width="24.1" height="24.1" fill="black" fill-opacity="0"/>
<rect width="24.1" height="24.1" fill="black" fill-opacity="0"/>
<rect width="24.1" height="24.1" fill="black" fill-opacity="0"/>
<path d="M19.6 15.4C18.2 15.4 17 16.1 16.2 17.1L8.7 13.3C8.8 12.9 8.9 12.6 8.9 12.2C8.9 11.8 8.8 11.4 8.7 11L16.2 7.2C17 8.3 18.3 9 19.7 9C22.1 9 24.1 7 24.1 4.6C24 2 22 0 19.6 0C17.2 0 15.2 2 15.2 4.4C15.2 4.8 15.3 5.2 15.4 5.5L7.9 9.4C7.1 8.4 5.9 7.7 4.4 7.7C2 7.7 0 9.7 0 12.1C0 14.5 2 16.5 4.4 16.5C5.8 16.5 7.1 15.8 7.9 14.7L15.4 18.5C15.3 18.9 15.2 19.3 15.2 19.7C15.2 22.1 17.2 24.1 19.6 24.1C22 24.1 24 22.1 24 19.7C24 17.4 22 15.4 19.6 15.4Z" fill="#7AC943"/>
</svg>
