<svg width="31" height="19" viewBox="0 0 31 19" fill="none" xmlns="http://www.w3.org/2000/svg">
<path d="M30.0529 12.2927C29.9529 11.9927 29.8529 11.5927 29.8529 11.1927C29.5529 8.49271 26.9529 7.39271 25.0529 5.99271C22.8529 4.39271 20.6529 2.89271 18.3529 1.59271C15.0529 -0.307287 10.8529 -0.107287 7.15286 0.192713C6.35286 0.192713 5.55286 0.292713 4.85286 0.692713C4.15286 1.09271 5.35286 0.892713 5.45286 1.39271C5.45286 1.79271 4.85286 2.59271 4.75286 2.99271C4.45286 3.59271 4.25286 4.19271 3.85286 4.69271C3.65286 5.09271 2.65286 6.59271 2.75286 5.29271C2.75286 4.49271 3.15286 3.79271 3.45286 3.19271C3.65286 2.79271 4.25286 1.99271 4.15286 1.59271C4.05286 1.29271 3.75286 1.19271 3.75286 1.19271C3.55286 1.39271 3.45286 1.79271 3.35286 2.09271C3.15286 2.59271 2.85286 2.99271 2.65286 3.49271C2.15286 4.49271 1.65286 5.59271 1.55286 6.79271C1.35286 7.59271 1.45286 8.49271 1.15286 9.29271C0.952864 9.99271 0.552864 10.6927 0.352864 11.3927C0.252864 11.6927 -0.247136 13.3927 0.152864 13.5927C0.352864 13.6927 0.652864 13.2927 0.652864 13.0927C-0.547136 15.4927 0.552864 18.5927 3.45286 18.8927C5.35286 19.0927 6.75286 17.6927 7.45286 16.0927C7.95286 16.4927 8.85286 16.3927 9.35286 16.3927C12.9529 16.3927 16.6529 16.3927 20.2529 16.3927C21.2529 16.3927 22.3529 16.1927 22.4529 14.9927C22.5529 16.0927 22.8529 17.0927 23.6529 17.8927C24.5529 18.7927 26.0529 19.1927 27.2529 18.7927C28.4529 18.3927 29.2529 17.2927 29.8529 16.1927C29.8529 16.2927 29.9529 16.2927 29.9529 16.3927C31.2529 15.8927 30.8529 13.5927 30.2529 12.6927C30.3529 12.5927 30.0529 12.3927 30.0529 12.2927ZM6.15286 15.3927C5.85286 18.1927 1.55286 17.7927 1.75286 14.9927C1.75286 14.8927 1.75286 14.6927 1.85286 14.5927C1.85286 14.5927 1.85286 14.4927 1.95286 14.4927C1.95286 14.3927 2.05286 14.2927 2.05286 14.1927L2.15286 14.0927C2.15286 13.9927 2.25286 13.9927 2.25286 13.8927L2.35286 13.7927C2.45286 13.6927 2.45286 13.6927 2.55286 13.5927L2.65286 13.4927C2.75286 13.4927 2.75286 13.3927 2.85286 13.3927C2.95286 13.3927 2.95286 13.2927 3.05286 13.2927C3.15286 13.2927 3.15286 13.1927 3.25286 13.1927C3.35286 13.1927 3.35286 13.1927 3.45286 13.0927C3.55286 13.0927 3.55286 13.0927 3.65286 13.0927C3.75286 13.0927 3.75286 13.0927 3.85286 13.0927C3.95286 13.0927 4.05286 13.0927 4.15286 13.0927C5.35286 13.0927 6.25286 14.1927 6.15286 15.3927ZM22.4529 6.99271L8.35286 5.79271C7.55286 5.79271 6.85286 4.99271 6.95286 4.19271C7.05286 2.99271 7.55286 1.49271 8.75286 1.19271C9.95286 0.792713 11.7529 0.892713 13.0529 0.992713C13.8529 1.09271 15.1529 1.39271 15.9529 1.69271C17.8529 2.39271 21.2529 3.89271 23.1529 5.89271C23.6529 6.49271 23.3529 6.99271 22.4529 6.99271ZM28.6529 15.3927C28.6529 15.4927 28.6529 15.6927 28.5529 15.7927C28.5529 15.7927 28.5529 15.8927 28.4529 15.8927C28.4529 15.9927 28.3529 16.0927 28.3529 16.1927L28.2529 16.2927C28.2529 16.3927 28.1529 16.3927 28.1529 16.4927L28.0529 16.5927C27.9529 16.6927 27.9529 16.6927 27.8529 16.7927L27.7529 16.8927C27.6529 16.8927 27.6529 16.9927 27.5529 16.9927C27.4529 16.9927 27.4529 17.0927 27.3529 17.0927C27.2529 17.0927 27.2529 17.1927 27.1529 17.1927C27.0529 17.1927 27.0529 17.1927 26.9529 17.2927C26.8529 17.2927 26.8529 17.2927 26.7529 17.2927C26.6529 17.2927 26.6529 17.2927 26.5529 17.2927C26.4529 17.2927 26.3529 17.2927 26.2529 17.2927C25.0529 17.1927 24.1529 16.0927 24.2529 14.8927C24.2529 14.7927 24.2529 14.5927 24.3529 14.4927C24.3529 14.4927 24.3529 14.3927 24.4529 14.3927C24.4529 14.2927 24.5529 14.1927 24.5529 14.0927L24.6529 13.9927C24.6529 13.8927 24.7529 13.8927 24.7529 13.7927L24.8529 13.6927C24.9529 13.5927 24.9529 13.5927 25.0529 13.4927L25.1529 13.3927C25.2529 13.3927 25.2529 13.2927 25.3529 13.2927C25.4529 13.2927 25.4529 13.1927 25.5529 13.1927C25.6529 13.1927 25.6529 13.0927 25.7529 13.0927C25.8529 13.0927 25.8529 13.0927 25.9529 12.9927C26.0529 12.9927 26.0529 12.9927 26.1529 12.9927C26.2529 12.9927 26.2529 12.9927 26.3529 12.9927C26.4529 12.9927 26.5529 12.9927 26.6529 12.9927C27.8529 13.0927 28.7529 14.1927 28.6529 15.3927Z" fill="#FAA619"/>
</svg>
