<svg width="32" height="26" viewBox="0 0 32 26" fill="none" xmlns="http://www.w3.org/2000/svg">
<path d="M0 4.5C0 5.6 0.9 6.4 1.9 6.4H12.2C13.3 6.4 14.1 5.5 14.1 4.5V0H0V4.5Z" transform="translate(1.3 19.4)" fill="#FAA619"/>
<path d="M30.4 3.9H25.6L24.8 2.4C24.5 1.7 23.8 1.3 23.1 1.3H20.1L17.9 0.6C16.8 0.2 15.7 0 14.5 0H1.9C0.9 0 0 0.9 0 1.9V7.1C0 8.2 0.9 9 1.9 9H5L3.9 16.4L1.7 18.1H15L11 16.4L11.4 13.6H11.5C11.8 13.6 12.1 13.4 12.1 13.1L12.7 10.5C12.8 10.2 12.6 9.8 12.2 9.7C12.1 9.7 12 9.7 11.8 9.7L12.2 9H14.5C15.7 9 16.9 8.8 18 8.4L20.2 7.7H23.2C23.9 7.7 24.6 7.3 24.9 6.6L25.7 5.1H30.5C30.9 5.1 31.1 4.8 31.1 4.5C31.1 4.2 30.7 3.9 30.4 3.9ZM7.1 6.5H3.2C2.8 6.5 2.6 6.2 2.6 5.9C2.6 5.6 2.9 5.3 3.2 5.3H7.1C7.5 5.3 7.7 5.6 7.7 5.9C7.7 6.2 7.5 6.5 7.1 6.5ZM7.1 3.9H3.2C2.8 3.9 2.6 3.6 2.6 3.3C2.6 3 2.9 2.7 3.2 2.7H7.1C7.5 2.7 7.7 3 7.7 3.3C7.7 3.6 7.5 3.9 7.1 3.9ZM20.7 5.8C20.7 6.2 20.4 6.4 20.1 6.4C19.8 6.4 19.5 6.1 19.5 5.8V3.2C19.5 2.8 19.8 2.6 20.1 2.6C20.4 2.6 20.7 2.9 20.7 3.2V5.8Z" fill="#FAA619"/>
</svg>
