<svg width="25" height="24" viewBox="0 0 25 24" fill="none" xmlns="http://www.w3.org/2000/svg">
<path d="M19 0H1.83333C0.833333 0 0 0.983607 0 2.16393V14.7541C0 15.9344 0.833333 16.918 1.83333 16.918H13.6667L16.3333 20.0656C16.4167 20.1639 16.5833 20.2623 16.75 20.2623C17.0833 20.2623 17.3333 19.9672 17.3333 19.5738V16.918H19C20 16.918 20.8333 15.9344 20.8333 14.7541V2.16393C20.8333 0.983607 20 0 19 0ZM4.41667 10.8197C3.5 10.8197 2.66667 9.93443 2.66667 8.7541C2.66667 7.67213 3.41667 6.68853 4.41667 6.68853C5.41667 6.68853 6.16667 7.57377 6.16667 8.7541C6.16667 9.93443 5.41667 10.8197 4.41667 10.8197ZM10.5 10.8197C9.58333 10.8197 8.75 9.93443 8.75 8.7541C8.75 7.67213 9.5 6.68853 10.5 6.68853C11.4167 6.68853 12.25 7.57377 12.25 8.7541C12.1667 9.93443 11.4167 10.8197 10.5 10.8197ZM16.5 10.8197C15.5833 10.8197 14.75 9.93443 14.75 8.7541C14.75 7.67213 15.5 6.68853 16.5 6.68853C17.4167 6.68853 18.25 7.57377 18.25 8.7541C18.1667 9.93443 17.4167 10.8197 16.5 10.8197Z" transform="translate(4.16666)" fill="#FAA619"/>
<path d="M3.08333 4.32787V0H1.25C0.583333 0 0 0.688525 0 1.47541V9.7377C0 10.623 0.5 11.2131 1.25 11.2131H2.33333V12.9836C2.33333 13.1803 2.5 13.4754 2.75 13.4754C2.83333 13.4754 2.91667 13.377 3 13.377L4.75 11.3115H12.5C13.1667 11.3115 13.75 10.623 13.75 9.83607V7.77049H6C4.41667 7.77049 3.08333 6.19672 3.08333 4.32787Z" transform="translate(0 10.5246)" fill="#FAA619"/>
</svg>
