<svg width="32" height="24" viewBox="0 0 32 24" fill="none" xmlns="http://www.w3.org/2000/svg">
<path d="M28.1 0H2.9C1.3 0 0 1.3 0 2.9V15.5C0 17.1 1.3 18.4 2.9 18.4H28.1C29.7 18.4 31 17.1 31 15.5V2.9C31 1.3 29.7 0 28.1 0ZM29.1 15.5C29.1 16 28.7 16.5 28.1 16.5H2.9C2.4 16.5 1.9 16.1 1.9 15.5V2.9C1.9 2.4 2.3 1.9 2.9 1.9H28.1C28.6 1.9 29.1 2.3 29.1 2.9V15.5ZM29.5 20.3H19.4C19.4 20.8 19 21.3 18.4 21.3H12.6C12.1 21.3 11.6 20.9 11.6 20.3H1.5C0.7 20.3 0 21 0 21.8C0 22.6 0.7 23.3 1.5 23.3H29.6C30.4 23.3 31.1 22.6 31.1 21.8C31.1 21 30.3 20.3 29.5 20.3Z" fill="#FAA619"/>
</svg>
