<svg width="32" height="32" viewBox="0 0 32 32" fill="none" xmlns="http://www.w3.org/2000/svg">
<path d="M29.7 4.12366C30.4 4.12366 31 3.52366 31 2.82366V2.32366C31 2.12366 30.9 2.02366 30.8 1.92366C26.6 -1.27634 20.6 -0.376343 17.4 3.82366C16.2 5.52366 15.5 7.52366 15.5 9.52366C15.5 9.82366 15.5 10.0237 15.5 10.3237H4.1C3 10.3237 2 11.2237 2 12.4237C2 13.6237 2.9 14.5237 4.1 14.5237H5.4C4.9 15.4237 4.6 16.5237 4.6 17.6237V22.2237C3.9 21.2237 3.4 20.0237 3.1 18.8237C2.9 18.1237 2.3 17.7237 1.6 17.7237C0.7 17.7237 0 18.4237 0 19.2237C0 19.3237 0 19.5237 0.1 19.6237C0.9 22.5237 2.6 25.1237 4.9 27.1237C6 28.0237 7.2 28.8237 8.5 29.5237C13 31.6237 18.2 31.6237 22.7 29.5237C23 29.4237 23.3 29.2237 23.6 29.0237C24.4 28.6237 25.1 28.1237 25.7 27.6237C28.3 25.6237 30.1 22.8237 31 19.7237C31.1 19.2237 31 18.8237 30.7 18.4237C30.4 18.0237 29.9 17.8237 29.4 17.8237C29 17.8237 28.6 18.0237 28.3 18.3237C28.1 18.5237 28 18.7237 27.9 19.0237C27.5 20.5237 26.8 21.9237 25.8 23.1237V17.8237C25.8 17.7237 25.8 17.5237 25.8 17.4237C25.8 17.3237 25.8 17.3237 25.8 17.2237L25.7 16.9237L25.6 16.5237C25.6 16.4237 25.6 16.3237 25.5 16.3237L24.4 10.6237V10.5237C24.4 10.2237 24.6 9.92366 25 9.82366C25.3 9.72366 25.6 9.92366 25.8 10.1237L26.5 11.2237C27.1 12.1237 28.3 12.4237 29.2 11.9237C29.4 11.8237 29.6 11.6237 29.7 11.5237C30.1 11.0237 30.2 10.4237 30.1 9.92366L29.1 5.12366C29.1 4.92366 29.1 4.82366 29.2 4.72366C29.4 4.22366 29.5 4.12366 29.7 4.12366ZM9.3 11.4237H15.5V14.5237C15.5 14.8237 15.3 15.0237 15 15.0237H9.8C9.5 15.0237 9.3 14.8237 9.3 14.5237V11.4237ZM15.5 27.9237C12.7 27.9237 10 27.0237 7.8 25.4237C8.1 21.5237 11.3 18.4237 15.3 18.4237C19.4 18.4237 22.7 21.7237 22.8 25.8237C20.6 27.2237 18.1 27.9237 15.5 27.9237ZM27.4 5.72366C27.4 6.02366 27.2 6.22366 26.9 6.22366C26.6 6.22366 26.4 6.02366 26.4 5.72366V5.22366C26.4 4.92366 26.6 4.72366 26.9 4.72366C27.2 4.72366 27.4 4.92366 27.4 5.22366V5.72366Z" fill="#FAA619"/>
</svg>
