<svg width="31" height="25" viewBox="0 0 31 25" fill="none" xmlns="http://www.w3.org/2000/svg">
<path d="M15.5 9.3C12.9 9.3 10.9 11.4 10.9 13.9C10.9 16.5 13 18.6 15.5 18.6C18.1 18.6 20.1 16.5 20.1 13.9C20.1 11.4 18.1 9.3 15.5 9.3ZM27.9 4.7H24.2C23.7 4.7 23.1 4.3 23 3.8L22 0.9C21.8 0.4 21.3 0 20.8 0H10.2C9.7 0 9.2 0.4 9 0.9L8 3.8C7.9 4.3 7.3 4.7 6.8 4.7H3.1C1.4 4.7 0 6 0 7.8V21.8C0 23.5 1.4 24.9 3.1 24.9H27.9C29.6 24.9 31 23.5 31 21.8V7.8C31 6 29.6 4.7 27.9 4.7ZM15.5 21.7C11.2 21.7 7.7 18.2 7.7 13.9C7.7 9.6 11.2 6.1 15.5 6.1C19.8 6.1 23.3 9.6 23.3 13.9C23.3 18.2 19.8 21.7 15.5 21.7ZM26.8 9.9C26.2 9.9 25.7 9.4 25.7 8.8C25.7 8.2 26.2 7.7 26.8 7.7C27.4 7.7 27.9 8.2 27.9 8.8C27.9 9.4 27.4 9.9 26.8 9.9Z" fill="#FAA619"/>
</svg>
