<svg width="32" height="32" viewBox="0 0 32 32" fill="none" xmlns="http://www.w3.org/2000/svg">
<path d="M12.225 9.525L9.625 7.025L11.525 5.025C11.725 4.825 11.825 4.625 11.825 4.425C11.825 4.225 11.725 3.925 11.525 3.825L8.925 1.225C8.625 0.925 8.025 0.925 7.625 1.225L5.725 3.125L3.125 0.525C2.425 -0.175 1.225 -0.175 0.525 0.525C-0.175 1.225 -0.175 2.425 0.525 3.125L9.525 12.125C10.225 12.825 11.425 12.825 12.125 12.125C12.925 11.425 12.925 10.225 12.225 9.525Z" transform="translate(18.3)" fill="#FAA619"/>
<path d="M12.125 9.525L3.125 0.525C2.425 -0.175 1.225 -0.175 0.525 0.525C-0.175 1.225 -0.175 2.425 0.525 3.125L3.125 5.725L1.225 7.625C1.025 7.825 0.925 8.025 0.925 8.225C0.925 8.425 1.025 8.725 1.225 8.825L3.825 11.425C4.025 11.625 4.225 11.725 4.425 11.725C4.625 11.725 4.925 11.625 5.025 11.425L7.025 9.525L9.625 12.125C10.325 12.825 11.525 12.825 12.225 12.125C12.825 11.425 12.825 10.225 12.125 9.525Z" transform="translate(0 18.4)" fill="#FAA619"/>
<path d="M5.5 0L0 5.5L3.9 9.4L9.4 3.9L5.5 0Z" transform="translate(10.825 10.825)" fill="#FAA619"/>
<path d="M14.725 12.125L3.125 0.525C2.425 -0.175 1.225 -0.175 0.525 0.525C-0.175 1.225 -0.175 2.425 0.525 3.125L12.125 14.725C12.825 15.425 14.025 15.425 14.725 14.725C15.425 13.925 15.425 12.825 14.725 12.125Z" transform="translate(13.2 2.60001)" fill="#FAA619"/>
<path d="M14.625 12.025L3.125 0.525C2.425 -0.175 1.225 -0.175 0.525 0.525C-0.175 1.225 -0.175 2.425 0.525 3.125L12.125 14.725C12.825 15.425 14.025 15.425 14.725 14.725C15.325 13.925 15.325 12.825 14.625 12.025Z" transform="translate(2.6 13.3)" fill="#FAA619"/>
</svg>
