<svg width="31" height="26" viewBox="0 0 31 26" fill="none" xmlns="http://www.w3.org/2000/svg">
<path d="M29.2058 0H29.0064H1.79421H1.69453C0.797428 0.1 0.0996785 0.8 0 1.7V1.9V19.9C0 20.2 0.0996785 20.5 0.199357 20.8C0.498392 21.4 1.09646 21.7 1.79421 21.7H11.7621V24.2H9.86817C9.36977 24.2 9.07074 24.6 9.07074 25C9.07074 25.5 9.46945 25.8 9.86817 25.8H21.0322C21.5305 25.8 21.8296 25.4 21.8296 25C21.8296 24.5 21.4309 24.2 21.0322 24.2H19.1383V21.7H29.1061C29.8039 21.7 30.3022 21.4 30.701 20.8C30.9003 20.5 31 20.2 31 19.9V1.9V1.7C30.8006 0.8 30.1029 0.1 29.2058 0ZM29.2058 1.8V19.8C29.2058 19.9 29.2058 20 29.0064 20H1.79421C1.69453 20 1.59486 20 1.59486 19.8V1.8V1.7H29.1061L29.2058 1.8Z" fill="#FAA619"/>
</svg>
