<svg width="29" height="31" viewBox="0 0 29 31" fill="none" xmlns="http://www.w3.org/2000/svg">
<path d="M25.8 18.1H24.5V11.6C25.9 11.6 27.1 10.4 27.1 9V5.2C27.1 3.8 25.9 2.6 24.5 2.6H18C17.7 1.1 16.4 0 14.9 0H13.6C12 0 10.7 1.1 10.4 2.6H3.9C2.5 2.6 1.3 3.8 1.3 5.2V9C1.3 10.4 2.5 11.6 3.9 11.6V18.1H2.6C1.2 18.1 0 19.3 0 20.7V24.6C0 26 1.2 27.2 2.6 27.2H3.9V28.5C3.9 29.8 5 31 6.5 31H22C23.4 31 24.6 29.8 24.6 28.4V27.1H25.9C27.3 27.1 28.5 25.9 28.5 24.5V20.6C28.4 19.2 27.3 18.1 25.8 18.1ZM18.1 3.9H19.4V12.9H18.1V3.9ZM18.1 14.2H19.4V14.8C19.4 15.2 19.1 15.4 18.8 15.4C18.4 15.4 18.2 15.1 18.2 14.8L18.1 14.2ZM13.6 1.3H14.9C15.7 1.3 16.5 1.8 16.7 2.6H11.8C12 1.8 12.7 1.3 13.6 1.3ZM9 3.9H10.3C10.3 4.1 10.3 5.4 10.3 12.9H9V3.9ZM9 14.2H10.3C10.3 14.4 10.3 14.6 10.3 14.8C10.3 15 10.2 15.1 10.1 15.3C9.8 15.7 9 15.4 9 14.9V14.2ZM20.7 26.5C20.7 26.9 20.4 27.1 20.1 27.1H8.4C8 27.1 7.8 26.8 7.8 26.5V18.7C7.8 18.3 8.1 18.1 8.4 18.1H20C20.4 18.1 20.6 18.4 20.6 18.7V26.5H20.7Z" fill="#FAA619"/>
<path d="M5.7 3.5C5.7 3.9 5.4 4.1 5.1 4.1C4.8 4.1 4.5 3.8 4.5 3.5V2.8C2.8 2.5 1.1 1.1 0 0V5.5H10.3V0C9.2 1.1 7.5 2.5 5.8 2.8L5.7 3.5Z" transform="translate(9.2 20.4)" fill="#FAA619"/>
<path d="M3.7 2C3.7 1.6 4 1.4 4.3 1.4C4.6 1.4 4.9 1.7 4.9 2V2.5C6.2 2.2 7.6 1 8.6 0H0C1 1 2.4 2.1 3.7 2.5V2Z" transform="translate(9.9 19.3)" fill="#FAA619"/>
</svg>
