<svg width="21" height="20" viewBox="0 0 21 20" fill="none" xmlns="http://www.w3.org/2000/svg">
<path d="M19.6785 8.7C20.0785 8.3 20.1785 7.8 20.0785 7.2C19.8785 6.7 19.4785 6.3 18.8785 6.2L14.0785 5.5C13.8785 5.5 13.6785 5.3 13.5785 5.2L11.3785 0.8C11.0785 0.3 10.6785 0 10.0785 0C9.57846 0 9.07846 0.3 8.77846 0.8L6.57846 5.2C6.57846 5.4 6.37846 5.5 6.17846 5.5L1.27846 6.2C0.778461 6.3 0.278461 6.7 0.078461 7.2C-0.121539 7.7 0.078461 8.3 0.478461 8.7L3.97846 12.1C4.07846 12.2 4.17846 12.5 4.17846 12.7L3.37846 17.5C3.27846 17.9 3.37846 18.3 3.67846 18.7C4.07846 19.2 4.87846 19.3 5.47846 19L9.77846 16.7C9.97846 16.6 10.1785 16.6 10.3785 16.7L14.6785 19C14.8785 19.1 15.0785 19.2 15.3785 19.2C15.7785 19.2 16.1785 19 16.4785 18.7C16.7785 18.4 16.8785 18 16.7785 17.5L15.9785 12.7C15.9785 12.5 15.9785 12.3 16.1785 12.1L19.6785 8.7Z" fill="#F0D848"/>
</svg>
