<svg xmlns="http://www.w3.org/2000/svg" width="24" height="24" viewBox="0 0 24 24">
  <defs>
    <style>
      .cls-1 {
        fill: #333;
        fill-rule: evenodd;
      }
    </style>
  </defs>
  <path id="RSS" class="cls-1" d="M991,728.5a12,12,0,1,0,12,12A12,12,0,0,0,991,728.5Zm-3.722,17.413a1.578,1.578,0,1,1,1.578-1.578A1.578,1.578,0,0,1,987.278,745.913Zm3.958,0.01a5.539,5.539,0,0,0-1.622-3.938,5.479,5.479,0,0,0-3.912-1.628v-2.278a7.837,7.837,0,0,1,7.811,7.844h-2.277Zm4.023,0a9.59,9.59,0,0,0-9.553-9.6v-2.279a11.872,11.872,0,0,1,11.831,11.883h-2.278Z" transform="translate(-979 -728.5)"/>
</svg>
