<svg xmlns="http://www.w3.org/2000/svg" width="24" height="24" viewBox="0 0 24 24">
  <defs>
    <style>
      .cls-1 {
        fill: #333;
        fill-rule: evenodd;
      }
    </style>
  </defs>
  <path id="Twitter" class="cls-1" d="M1063,728.5a12,12,0,1,0,12,12A12,12,0,0,0,1063,728.5Zm6.63,12.135a6.051,6.051,0,0,1-1.09,2.3,8.8,8.8,0,0,1-4.56,3.032h-0.03a9.717,9.717,0,0,1-5.55-.128,8.384,8.384,0,0,1-3.9-2.93,4.562,4.562,0,0,0,2.72,1.159l0.03-.01a4.417,4.417,0,0,0,3.54-1.3c0.01,0,.01-0.01.02-0.016l-0.03-.037a1.161,1.161,0,0,1-1.17-.514,0.643,0.643,0,0,1,.18-0.642,1.411,1.411,0,0,1,.46-0.321,2.08,2.08,0,0,1-2.08-1.047,1.4,1.4,0,0,1,1.15-.45v-0.015c-1.19-.322-1.81-0.9-1.87-1.739a3.109,3.109,0,0,1,.95-0.133v-0.016a2.394,2.394,0,0,1-1.39-2.151,17.643,17.643,0,0,1,2.52,1.006,14.445,14.445,0,0,1,1.98,1,4.366,4.366,0,0,1,1.2,1l0.02-.016,0.08-.063a8.916,8.916,0,0,1,1.17-2.578l0.01-.028a8.364,8.364,0,0,1,.84-1.021,3.809,3.809,0,0,1,.58-0.465,0.659,0.659,0,0,1-.2.454,2.179,2.179,0,0,1,1.31-.6c0.09,0.091-.07.268-0.48,0.519a4.621,4.621,0,0,1,1.08-.251,0.179,0.179,0,0,1,.18.262,2.657,2.657,0,0,1-1.39.54s-0.01,0-.01,0l0.03,0.059a3.108,3.108,0,0,1,2.26.813,0.116,0.116,0,0,0,.03.026,4.112,4.112,0,0,1,1.32,2.429,2.88,2.88,0,0,0,2.04-.023,1.88,1.88,0,0,1-1.76.916h0v0.1a4.178,4.178,0,0,0,1.82.1l0.01,0.017A2.265,2.265,0,0,1,1069.63,740.636Z" transform="translate(-1051 -728.5)"/>
</svg>
