<?xml version="1.0" encoding="utf-8"?><svg width="44" height="44" fill="none" xmlns="http://www.w3.org/2000/svg" viewBox="-10 -10 44 44"><path d="M1.5 3.375h21a1.5 1.5 0 011.5 1.5v14.25a1.5 1.5 0 01-1.5 1.5h-21a1.5 1.5 0 01-1.5-1.5V4.875a1.5 1.5 0 011.5-1.5z" fill="#26A6D1"/><path d="M3.87 9.375L1.5 14.619h2.837l.352-.836h.804l.352.836h3.123v-.638l.278.638h1.615l.279-.651v.651h6.495l.79-.814.739.814 3.336.007-2.378-2.614L22.5 9.375h-3.284l-.769.8-.716-.8h-7.066l-.607 1.353-.62-1.353H6.605v.616l-.315-.616H3.87zm.549.744h1.383l1.572 3.557v-3.557H8.89l1.214 2.55 1.12-2.55h1.507v3.764h-.918l-.007-2.95-1.337 2.95h-.82l-1.345-2.95v2.95H6.415l-.357-.844H4.125l-.357.843H2.757l1.662-3.763zm9.15 0h3.73l1.14 1.233 1.178-1.233h1.14l-1.733 1.892 1.734 1.87h-1.193l-1.14-1.247-1.184 1.247h-3.672v-3.762zm-8.477.637l-.637 1.503h1.273l-.636-1.503zm9.398.143v.687h2.035v.765H14.49v.75h2.282l1.06-1.104-1.015-1.099H14.49z" fill="#fff"/></svg>