<?xml version="1.0" encoding="utf-8"?><svg width="40" height="32" fill="none" xmlns="http://www.w3.org/2000/svg" viewBox="-10 -10 40 32"><path fill-rule="evenodd" clip-rule="evenodd" d="M20 0H0v2a4 4 0 110 8v2h20v-2a4 4 0 110-8V0zm-6.763 6.194a.907.907 0 01.763.893.92.92 0 01-.255.645.887.887 0 01-.632.268.876.876 0 01-.632-.268 1.008 1.008 0 01-.25-.506v.01c-.061-.789-.31-1.168-.766-1.63-.456-.474-.85-.706-1.585-.8h.01a.865.865 0 01-.528-.253.903.903 0 01-.265-.642.915.915 0 01.554-.841.876.876 0 01.975.198c.14.154.227.35.248.558.114.737.28 1.084.777 1.59.498.515.86.684 1.586.778zm-4.071.547a.903.903 0 01.195-.294.888.888 0 01.633-.268.876.876 0 01.632.268.904.904 0 01.264.642.916.916 0 01-.554.841.876.876 0 01-.975-.198.903.903 0 01-.264-.643c0-.12.023-.237.069-.348zM7.219 7.93a.879.879 0 01-.344.065.885.885 0 01-.62-.27.913.913 0 010-1.269.885.885 0 01.62-.271.879.879 0 01.637.26.906.906 0 01.265.645.918.918 0 01-.265.645.89.89 0 01-.293.195z" fill="#C6973A"/></svg>