<?xml version="1.0" encoding="utf-8"?><svg width="44" height="44" fill="none" xmlns="http://www.w3.org/2000/svg" viewBox="-10 -10 44 44"><path fill-rule="evenodd" clip-rule="evenodd" d="M7 9a5 5 0 0110 0v10h-1.268A2 2 0 0014 18h-2a2 2 0 100 4h2a2 2 0 001.732-1H17a2 2 0 002-2v-3a3 3 0 003-3v-2a3 3 0 00-3-3h-.07A7.001 7.001 0 005.07 8H5a3 3 0 00-3 3v2a3 3 0 003 3h2V9zm5.898 1.764L12 8l-.898 2.764H8.196l2.35 1.708-.897 2.764L12 13.528l2.351 1.708-.898-2.764 2.351-1.708h-2.906z" fill="#C6973A"/></svg>