<?xml version="1.0" encoding="utf-8"?><svg width="51" height="44" fill="none" xmlns="http://www.w3.org/2000/svg" viewBox="-10 -10 51 44"><g clip-path="url(#hclip0)"><path d="M30.224 23.663v.063h.058a.061.061 0 00.032-.008.028.028 0 00.011-.024.026.026 0 00-.011-.023.055.055 0 00-.032-.008h-.058zm.059-.044c.03 0 .052.007.069.02a.066.066 0 01.024.055c0 .02-.006.035-.02.048a.094.094 0 01-.055.023l.077.088h-.06l-.07-.087h-.024v.087h-.05v-.234h.109zm-.016.314a.199.199 0 00.18-.12.202.202 0 000-.152.203.203 0 00-.104-.105.203.203 0 00-.153 0 .19.19 0 00-.104.104.189.189 0 00-.015.077.19.19 0 00.015.077.184.184 0 00.104.104c.024.01.05.015.077.015zm0-.448a.252.252 0 01.182.075.246.246 0 01.074.177.24.24 0 01-.02.098.26.26 0 01-.136.134.25.25 0 01-.1.02.254.254 0 01-.183-.074.26.26 0 01-.054-.08.241.241 0 010-.195.246.246 0 01.136-.134.256.256 0 01.101-.02zM6.65 22.587c0-.445.291-.81.768-.81.455 0 .762.349.762.81 0 .46-.307.81-.762.81-.477 0-.768-.365-.768-.81zm2.05 0V21.32h-.551v.307c-.175-.228-.44-.37-.8-.37-.71 0-1.266.556-1.266 1.329 0 .773.556 1.329 1.266 1.329.36 0 .625-.143.8-.371v.307h.55v-1.265zm18.6 0c0-.445.291-.81.768-.81.455 0 .762.349.762.81 0 .46-.307.81-.762.81-.477 0-.769-.365-.769-.81zm2.05 0v-2.283h-.551v1.324c-.175-.228-.44-.37-.8-.37-.71 0-1.266.556-1.266 1.329 0 .773.556 1.329 1.266 1.329.36 0 .625-.143.8-.371v.307h.55v-1.265zM15.53 21.75c.355 0 .583.223.641.614H14.86c.059-.366.28-.614.672-.614zm.011-.493c-.742 0-1.26.54-1.26 1.33 0 .805.54 1.329 1.297 1.329.382 0 .73-.095 1.038-.355l-.27-.408a1.21 1.21 0 01-.736.265c-.355 0-.678-.164-.757-.62h1.88c.005-.068.01-.137.01-.211-.005-.79-.492-1.33-1.201-1.33zm6.647 1.33c0-.445.291-.81.768-.81.455 0 .762.349.762.81 0 .46-.307.81-.762.81-.477 0-.768-.365-.768-.81zm2.05 0V21.32h-.551v.307c-.175-.228-.44-.37-.8-.37-.71 0-1.266.556-1.266 1.329 0 .773.556 1.329 1.266 1.329.36 0 .625-.143.8-.371v.307h.55v-1.265zm-5.159 0c0 .768.535 1.329 1.35 1.329.382 0 .636-.085.911-.302l-.264-.445a1.113 1.113 0 01-.663.228c-.44-.005-.762-.323-.762-.81 0-.488.323-.805.762-.81.24 0 .456.078.663.227l.264-.445c-.275-.217-.529-.302-.91-.302-.816 0-1.35.561-1.35 1.33zm7.097-1.33a.747.747 0 00-.668.371v-.307h-.545v2.531h.55v-1.419c0-.419.18-.651.541-.651.111 0 .228.015.344.063l.17-.519a1.172 1.172 0 00-.392-.069zm-14.755.265c-.265-.174-.63-.265-1.033-.265-.641 0-1.054.307-1.054.81 0 .413.307.668.874.747l.26.037c.302.043.444.122.444.265 0 .196-.201.308-.577.308-.381 0-.657-.122-.842-.265l-.26.428c.302.223.684.329 1.096.329.732 0 1.155-.344 1.155-.826 0-.445-.333-.678-.884-.758l-.26-.037c-.238-.032-.429-.079-.429-.249 0-.185.18-.296.482-.296.323 0 .636.122.79.217l.238-.445zm7.102-.265a.746.746 0 00-.667.371v-.307h-.546v2.531h.55v-1.419c0-.419.18-.651.54-.651.112 0 .229.015.345.063l.17-.519a1.172 1.172 0 00-.392-.069zm-4.698.064h-.9v-.768h-.556v.768h-.514v.503h.514v1.155c0 .587.228.937.879.937.239 0 .514-.074.688-.196l-.159-.471a1.018 1.018 0 01-.487.143c-.275 0-.365-.17-.365-.424v-1.144h.9v-.503zm-8.23 2.531v-1.589c0-.598-.381-1-.996-1.006-.323-.005-.656.095-.89.45-.174-.28-.45-.45-.836-.45-.27 0-.535.08-.742.376v-.312h-.55v2.531h.555V22.45c0-.44.244-.673.62-.673.366 0 .55.238.55.668v1.408h.557V22.45c0-.44.254-.673.62-.673.376 0 .556.238.556.668v1.408h.556z" fill="#010E28"/><path d="M30.564 15.434v-.37h-.097l-.111.254-.111-.254h-.097v.37h.068v-.28l.105.241h.07l.105-.241v.28h.068zm-.612 0v-.307h.124v-.063h-.316v.063h.124v.306h.068z" fill="#F79410"/><path d="M19.604 17.024h-8.342V2.032h8.342v14.992z" fill="#FF5F00"/><path d="M11.796 9.527a9.519 9.519 0 013.641-7.496A9.493 9.493 0 009.545-.008C4.28-.008.012 4.261.012 9.527s4.268 9.535 9.533 9.535c2.224 0 4.27-.762 5.892-2.04a9.519 9.519 0 01-3.64-7.495z" fill="#EB001B"/><path d="M30.855 9.527c0 5.266-4.269 9.535-9.534 9.535a9.496 9.496 0 01-5.893-2.04 9.517 9.517 0 003.642-7.495 9.517 9.517 0 00-3.642-7.496 9.496 9.496 0 015.893-2.039c5.265 0 9.534 4.269 9.534 9.535z" fill="#F79E1B"/></g><defs><clipPath id="hclip0"><path fill="#fff" d="M0 0h30.852v24H0z"/></clipPath></defs></svg>