<?xml version="1.0" encoding="utf-8"?><svg width="52" height="30.67" fill="none" xmlns="http://www.w3.org/2000/svg" viewBox="-15 -15 78 46"><g clip-path="url(#iclip0)"><path d="M20.8 15.31h-3.888L19.344.274h3.888L20.8 15.31zM34.895.64A9.582 9.582 0 0031.408 0c-3.84 0-6.544 2.048-6.56 4.975-.032 2.16 1.935 3.36 3.407 4.08 1.505.736 2.016 1.216 2.016 1.872-.015 1.008-1.216 1.472-2.335 1.472-1.552 0-2.384-.24-3.648-.8l-.512-.24-.545 3.375c.912.416 2.593.784 4.337.8 4.08 0 6.736-2.015 6.768-5.135.015-1.712-1.024-3.023-3.264-4.095-1.36-.688-2.193-1.152-2.193-1.856.016-.64.704-1.296 2.24-1.296a6.606 6.606 0 012.896.576l.352.16.528-3.248zM40.063 9.983l1.553-4.207c-.016.032.32-.88.511-1.44l.272 1.296s.737 3.6.896 4.351h-3.232zm4.8-9.71h-3.008c-.927 0-1.632.271-2.032 1.247l-5.775 13.79h4.08l.816-2.255h4.992c.111.528.464 2.255.464 2.255H48L44.863.273zM13.664.273L9.856 10.527l-.416-2.08c-.704-2.4-2.912-5.007-5.376-6.303l3.488 13.15h4.112L17.776.274h-4.112z" fill="#00579F"/><path d="M6.32.273H.064L0 .577c4.88 1.247 8.112 4.255 9.44 7.871L8.08 1.537C7.856.577 7.168.304 6.32.273z" fill="#FAA61A"/></g><defs><clipPath id="iclip0"><path fill="#fff" d="M0 0h48v15.535H0z"/></clipPath></defs></svg>