<svg width="24" height="24" viewBox="0 0 24 24" fill="none" xmlns="http://www.w3.org/2000/svg">
<path fill-rule="evenodd" clip-rule="evenodd" d="M7 9C7 6.23858 9.23858 4 12 4C14.7614 4 17 6.23858 17 9V12V15V16V19H15.7324C15.3866 18.4022 14.7403 18 14 18H12C10.8954 18 10 18.8954 10 20C10 21.1046 10.8954 22 12 22H14C14.7403 22 15.3866 21.5978 15.7324 21H17C18.1046 21 19 20.1046 19 19V16C20.6569 16 22 14.6569 22 13V11C22 9.34315 20.6569 8 19 8H18.9291C18.4439 4.60771 15.5265 2 12 2C8.47353 2 5.55612 4.60771 5.07089 8H5C3.34315 8 2 9.34315 2 11V13C2 14.6569 3.34315 16 5 16H7V12V9ZM12.8981 10.7639L12 8L11.1019 10.7639H8.19577L10.5469 12.4721L9.64886 15.2361L12 13.5279L14.3511 15.2361L13.4531 12.4721L15.8042 10.7639H12.8981Z" fill="#C6973A"/>
</svg>
