<svg width="24" height="24" viewBox="0 0 24 24" fill="none" xmlns="http://www.w3.org/2000/svg">
<path fill-rule="evenodd" clip-rule="evenodd" d="M16 10V8C16 5.79086 14.2091 4 12 4C9.79086 4 8 5.79086 8 8V10H16ZM6 8V10C4.89543 10 4 10.8954 4 12V20C4 21.1046 4.89543 22 6 22H18C19.1046 22 20 21.1046 20 20V12C20 10.8954 19.1046 10 18 10V8C18 4.68629 15.3137 2 12 2C8.68629 2 6 4.68629 6 8ZM16 12H18V20H6V12H8H16ZM14 15C14 15.7532 13.5837 16.4091 12.9686 16.7502C12.9891 16.8301 13 16.9138 13 17V18C13 18.5523 12.5523 19 12 19C11.4477 19 11 18.5523 11 18V17C11 16.9138 11.0109 16.8301 11.0314 16.7502C10.4163 16.4091 10 15.7532 10 15C10 13.8954 10.8954 13 12 13C13.1046 13 14 13.8954 14 15Z" fill="#919CB3"/>
</svg>
