<svg width="31" height="24" viewBox="0 0 31 24" fill="none" xmlns="http://www.w3.org/2000/svg">
<g clip-path="url(#clip0)">
<path d="M30.2244 23.6631V23.7256H30.282C30.2947 23.7256 30.3056 23.7225 30.3135 23.7177C30.3208 23.7128 30.325 23.7043 30.325 23.694C30.325 23.6837 30.3208 23.6759 30.3135 23.671C30.3056 23.6655 30.2947 23.6631 30.282 23.6631H30.2244ZM30.2826 23.6195C30.3123 23.6195 30.3353 23.6261 30.3517 23.6395C30.368 23.6528 30.3759 23.671 30.3759 23.694C30.3759 23.7134 30.3699 23.7292 30.3565 23.7419C30.3438 23.7541 30.3256 23.7619 30.3014 23.765L30.3777 23.8529H30.3183L30.2474 23.7656H30.2244V23.8529H30.1747V23.6195H30.2826ZM30.2674 23.9335C30.2947 23.9335 30.3202 23.928 30.3432 23.9177C30.3668 23.9074 30.3874 23.8935 30.405 23.8759C30.4226 23.8583 30.4365 23.8377 30.4469 23.8135C30.4565 23.7898 30.462 23.7644 30.462 23.7371C30.462 23.7098 30.4565 23.6843 30.4469 23.6607C30.4365 23.6371 30.4226 23.6158 30.405 23.5983C30.3874 23.5807 30.3668 23.5667 30.3432 23.5564C30.3202 23.5467 30.2947 23.5419 30.2674 23.5419C30.2401 23.5419 30.2141 23.5467 30.1904 23.5564C30.1662 23.5667 30.145 23.5807 30.1274 23.5983C30.1098 23.6158 30.0959 23.6371 30.0862 23.6607C30.0759 23.6843 30.071 23.7098 30.071 23.7371C30.071 23.7644 30.0759 23.7898 30.0862 23.8135C30.0959 23.8377 30.1098 23.8583 30.1274 23.8759C30.145 23.8935 30.1662 23.9074 30.1904 23.9177C30.2141 23.928 30.2401 23.9335 30.2674 23.9335ZM30.2674 23.4855C30.3032 23.4855 30.3359 23.4922 30.3674 23.5055C30.3984 23.5182 30.425 23.5364 30.4487 23.5595C30.4717 23.5819 30.4899 23.6086 30.5032 23.6395C30.5166 23.6698 30.5232 23.7025 30.5232 23.7371C30.5232 23.7716 30.5166 23.8044 30.5032 23.8347C30.4899 23.865 30.4717 23.8917 30.4487 23.9147C30.425 23.9371 30.3984 23.9553 30.3674 23.9686C30.3359 23.982 30.3032 23.9886 30.2674 23.9886C30.231 23.9886 30.1977 23.982 30.1662 23.9686C30.1347 23.9553 30.1074 23.9371 30.0843 23.9147C30.0613 23.8917 30.0431 23.865 30.0298 23.8347C30.0165 23.8044 30.0098 23.7716 30.0098 23.7371C30.0098 23.7025 30.0165 23.6698 30.0298 23.6395C30.0431 23.6086 30.0613 23.5819 30.0843 23.5595C30.1074 23.5364 30.1347 23.5182 30.1662 23.5055C30.1977 23.4922 30.231 23.4855 30.2674 23.4855ZM6.64965 22.5865C6.64965 22.1416 6.94123 21.7761 7.41769 21.7761C7.87294 21.7761 8.18028 22.1258 8.18028 22.5865C8.18028 23.0472 7.87294 23.397 7.41769 23.397C6.94123 23.397 6.64965 23.0315 6.64965 22.5865ZM8.69918 22.5865V21.3208H8.14876V21.6281C7.97418 21.4002 7.70927 21.2572 7.3492 21.2572C6.63935 21.2572 6.08286 21.8136 6.08286 22.5865C6.08286 23.36 6.63935 23.9159 7.3492 23.9159C7.70927 23.9159 7.97418 23.7728 8.14876 23.5449V23.8523H8.69918V22.5865ZM27.2995 22.5865C27.2995 22.1416 27.5911 21.7761 28.0676 21.7761C28.5234 21.7761 28.8301 22.1258 28.8301 22.5865C28.8301 23.0472 28.5234 23.397 28.0676 23.397C27.5911 23.397 27.2995 23.0315 27.2995 22.5865ZM29.3496 22.5865V20.3042H28.7986V21.6281C28.624 21.4002 28.3591 21.2572 27.9991 21.2572C27.2892 21.2572 26.7327 21.8136 26.7327 22.5865C26.7327 23.36 27.2892 23.9159 27.9991 23.9159C28.3591 23.9159 28.624 23.7728 28.7986 23.5449V23.8523H29.3496V22.5865ZM15.5315 21.75C15.8862 21.75 16.1141 21.9725 16.1723 22.3641H14.8587C14.9175 21.9985 15.1393 21.75 15.5315 21.75ZM15.5425 21.2572C14.8005 21.2572 14.2816 21.7973 14.2816 22.5865C14.2816 23.3916 14.8217 23.9159 15.5794 23.9159C15.9607 23.9159 16.3099 23.8207 16.6172 23.5613L16.3475 23.1533C16.1353 23.3224 15.865 23.4182 15.611 23.4182C15.2563 23.4182 14.9332 23.2539 14.8538 22.7981H16.7336C16.7391 22.7296 16.7445 22.6605 16.7445 22.5865C16.7391 21.7973 16.2517 21.2572 15.5425 21.2572ZM22.1887 22.5865C22.1887 22.1416 22.4803 21.7761 22.9568 21.7761C23.412 21.7761 23.7194 22.1258 23.7194 22.5865C23.7194 23.0472 23.412 23.397 22.9568 23.397C22.4803 23.397 22.1887 23.0315 22.1887 22.5865ZM24.2383 22.5865V21.3208H23.6878V21.6281C23.5126 21.4002 23.2483 21.2572 22.8883 21.2572C22.1784 21.2572 21.6219 21.8136 21.6219 22.5865C21.6219 23.36 22.1784 23.9159 22.8883 23.9159C23.2483 23.9159 23.5126 23.7728 23.6878 23.5449V23.8523H24.2383V22.5865ZM19.0802 22.5865C19.0802 23.3546 19.6148 23.9159 20.4308 23.9159C20.8121 23.9159 21.0661 23.831 21.3413 23.614L21.077 23.1691C20.8703 23.3176 20.6532 23.397 20.4144 23.397C19.9749 23.3916 19.6518 23.0739 19.6518 22.5865C19.6518 22.0992 19.9749 21.7815 20.4144 21.7761C20.6532 21.7761 20.8703 21.8555 21.077 22.004L21.3413 21.559C21.0661 21.342 20.8121 21.2572 20.4308 21.2572C19.6148 21.2572 19.0802 21.8185 19.0802 22.5865ZM26.1768 21.2572C25.8592 21.2572 25.6525 21.4057 25.5094 21.6281V21.3208H24.9639V23.8523H25.5149V22.4332C25.5149 22.0143 25.6949 21.7815 26.055 21.7815C26.1665 21.7815 26.2829 21.7973 26.3993 21.8452L26.5691 21.3263C26.4472 21.2784 26.2884 21.2572 26.1768 21.2572ZM11.4216 21.5221C11.1567 21.3475 10.7917 21.2572 10.3892 21.2572C9.74789 21.2572 9.33507 21.5645 9.33507 22.0676C9.33507 22.4804 9.64241 22.735 10.2086 22.8145L10.4686 22.8514C10.7705 22.8939 10.913 22.9733 10.913 23.1163C10.913 23.3121 10.7117 23.4237 10.3359 23.4237C9.9546 23.4237 9.67939 23.3018 9.49389 23.1588L9.23445 23.5874C9.53633 23.8098 9.91762 23.9159 10.3304 23.9159C11.0615 23.9159 11.4852 23.5716 11.4852 23.0897C11.4852 22.6447 11.1518 22.4119 10.6008 22.3325L10.3414 22.295C10.1031 22.2634 9.91217 22.2161 9.91217 22.0464C9.91217 21.8609 10.0922 21.75 10.3941 21.75C10.7172 21.75 11.03 21.8718 11.1833 21.967L11.4216 21.5221ZM18.5237 21.2572C18.2061 21.2572 17.9993 21.4057 17.8569 21.6281V21.3208H17.3113V23.8523H17.8617V22.4332C17.8617 22.0143 18.0418 21.7815 18.4019 21.7815C18.5134 21.7815 18.6298 21.7973 18.7462 21.8452L18.9159 21.3263C18.7941 21.2784 18.6352 21.2572 18.5237 21.2572ZM13.8263 21.3208H12.9261V20.5528H12.3697V21.3208H11.8562V21.8239H12.3697V22.9787C12.3697 23.5661 12.5976 23.9159 13.2486 23.9159C13.4875 23.9159 13.7627 23.8419 13.9373 23.7201L13.7784 23.2485C13.6142 23.3437 13.4341 23.3916 13.2911 23.3916C13.0159 23.3916 12.9261 23.2218 12.9261 22.9678V21.8239H13.8263V21.3208ZM5.5961 23.8523V22.2634C5.5961 21.6651 5.2148 21.2626 4.60012 21.2572C4.27703 21.2517 3.94362 21.3523 3.71024 21.7076C3.53566 21.4269 3.26044 21.2572 2.8737 21.2572C2.60334 21.2572 2.33904 21.3366 2.13233 21.633V21.3208H1.5813V23.8523H2.13717V22.4489C2.13717 22.0094 2.38086 21.7761 2.75731 21.7761C3.12284 21.7761 3.30773 22.0143 3.30773 22.4435V23.8523H3.86421V22.4489C3.86421 22.0094 4.1182 21.7761 4.48374 21.7761C4.85957 21.7761 5.03961 22.0143 5.03961 22.4435V23.8523H5.5961Z" fill="#010E28"/>
<path d="M30.5637 15.4335V15.0637H30.4673L30.3558 15.3177L30.2448 15.0637H30.1479V15.4335H30.2163V15.1547L30.3206 15.3953H30.3915L30.4958 15.154V15.4335H30.5637ZM29.9521 15.4335V15.1268H30.0757V15.0643H29.7605V15.1268H29.8842V15.4335H29.9521Z" fill="#F79410"/>
<path d="M19.6039 17.0241H11.2617V2.03186H19.6039V17.0241Z" fill="#FF5F00"/>
<path d="M11.7961 9.5268C11.7961 6.48554 13.22 3.77648 15.4374 2.03065C13.8159 0.754019 11.7694 -0.00796206 9.54527 -0.00796206C4.2799 -0.00796206 0.0117188 4.26083 0.0117188 9.5268C0.0117188 14.7928 4.2799 19.0616 9.54527 19.0616C11.7694 19.0616 13.8159 18.2996 15.4374 17.0229C13.22 15.2771 11.7961 12.568 11.7961 9.5268Z" fill="#EB001B"/>
<path d="M30.8546 9.5268C30.8546 14.7928 26.5864 19.0616 21.321 19.0616C19.0969 19.0616 17.0504 18.2996 15.4282 17.0229C17.6463 15.2771 19.0702 12.568 19.0702 9.5268C19.0702 6.48554 17.6463 3.77648 15.4282 2.03065C17.0504 0.754019 19.0969 -0.00796206 21.321 -0.00796206C26.5864 -0.00796206 30.8546 4.26083 30.8546 9.5268Z" fill="#F79E1B"/>
</g>
<defs>
<clipPath id="clip0">
<rect width="30.8523" height="24" fill="white"/>
</clipPath>
</defs>
</svg>
