<svg width="48" height="16" viewBox="0 0 48 16" fill="none" xmlns="http://www.w3.org/2000/svg">
<g clip-path="url(#clip0)">
<path d="M20.8 15.3106H16.9116L19.3437 0.272659H23.2318L20.8 15.3106Z" fill="#00579F"/>
<path d="M34.8954 0.640301C34.1285 0.336029 32.912 7.62939e-05 31.4079 7.62939e-05C27.568 7.62939e-05 24.864 2.04769 24.8474 4.97515C24.8155 7.13503 26.7834 8.33468 28.2552 9.05485C29.7596 9.79076 30.2709 10.2711 30.2709 10.927C30.2556 11.9345 29.0553 12.3989 27.9359 12.3989C26.3835 12.3989 25.5517 12.1594 24.2876 11.599L23.7756 11.3587L23.2314 14.7344C24.1434 15.1498 25.8236 15.5185 27.568 15.5347C31.6479 15.5347 34.3041 13.5188 34.3356 10.3991C34.3511 8.68722 33.312 7.37552 31.0717 6.30366C29.7117 5.61559 28.8789 5.15164 28.8789 4.44762C28.8948 3.80761 29.5833 3.15208 31.1185 3.15208C32.3826 3.11997 33.3113 3.42382 34.0149 3.72788L34.3666 3.88756L34.8954 0.640301Z" fill="#00579F"/>
<path d="M40.0635 9.98319C40.3837 9.11928 41.6159 5.7757 41.6159 5.7757C41.5997 5.8078 41.9355 4.89584 42.1275 4.33599L42.3992 5.63175C42.3992 5.63175 43.1356 9.23133 43.2954 9.98319C42.6878 9.98319 40.8315 9.98319 40.0635 9.98319ZM44.8632 0.272659H41.8555C40.928 0.272659 40.2234 0.544398 39.8232 1.52036L34.0476 15.3104H38.1275C38.1275 15.3104 38.7992 13.4543 38.9436 13.0546C39.3912 13.0546 43.3601 13.0546 43.9359 13.0546C44.0475 13.5826 44.3998 15.3104 44.3998 15.3104H48.0001L44.8632 0.272659Z" fill="#00579F"/>
<path d="M13.6639 0.272659L9.85597 10.5271L9.43985 8.44738C8.73584 6.04765 6.5279 3.4404 4.06396 2.144L7.55192 15.2947H11.6637L17.7755 0.272659H13.6639Z" fill="#00579F"/>
<path d="M6.31996 0.272659H0.0640009L0 0.576505C4.88004 1.82442 8.11199 4.83248 9.43985 8.44801L8.07988 1.53674C7.85598 0.576293 7.16792 0.304341 6.31996 0.272659Z" fill="#FAA61A"/>
</g>
<defs>
<clipPath id="clip0">
<rect width="48" height="15.5346" fill="white"/>
</clipPath>
</defs>
</svg>
