<svg xmlns="http://www.w3.org/2000/svg" width="26" height="20" viewBox="0 0 26 20" fill="none">
    <path d="M24.88 17.43H1.14C0.84 17.43 0.55 17.56 0.33 17.8C0.23 17.92 0.14 18.07 0.09 18.23C0.03 18.38 0 18.55 0 18.72C0 18.88 0.03 19.05 0.09 19.21C0.15 19.37 0.23 19.51 0.33 19.64C0.44 19.75 0.57 19.85 0.71 19.9C0.85 19.97 1 20 1.15 20H24.89C25.19 19.99 25.47 19.86 25.68 19.62C25.88 19.39 26 19.07 26 18.73C26 18.4 25.89 18.08 25.68 17.84C25.47 17.61 25.19 17.47 24.9 17.46L24.88 17.43ZM19.96 0C20.31 0 20.59 0.31 20.59 0.69L20.59 13.13L20.59 13.11V10.04L24.93 5.12C25.05 4.99 25.21 4.91 25.38 4.91C25.72 4.91 25.99 5.23 25.99 5.61V14.9C26 15.15 25.94 15.39 25.81 15.6C25.69 15.81 25.52 15.97 25.31 16.07C25.17 16.13 25.03 16.16 24.88 16.16H20.59L14.66 16.16L14.71 16.16H6.56C6.55 16.16 6.54 16.16 6.54 16.16L1.14 16.16C0.99 16.16 0.85 16.13 0.71 16.07C0.51 15.97 0.33 15.81 0.21 15.6C0.09 15.39 0.02 15.15 0.03 14.9V5.6C0.03 5.42 0.09 5.24 0.21 5.11C0.46 4.84 0.85 4.84 1.09 5.12L5.44 10.02L5.44 0.71C5.44 0.54 5.5 0.38 5.6 0.25L5.62 0.22C5.87 0.05 6.26 0.05 6.5 0.23L13.01 7.58L19.52 0.21C19.63 0.08 19.77 0.01 19.93 0L19.96 0Z" fill="#E30077"/>
</svg>