<?xml version="1.0" encoding="utf-8"?><svg width="180" height="119" viewBox="0 0 180 119" xmlns="http://www.w3.org/2000/svg" xmlns:xlink="http://www.w3.org/1999/xlink"><view id="amex" viewBox="52 0 44 44"/><svg width="44" height="44" fill="none" viewBox="-10 -10 44 44" x="52" xmlns="http://www.w3.org/2000/svg"><path d="M1.5 3.375h21a1.5 1.5 0 011.5 1.5v14.25a1.5 1.5 0 01-1.5 1.5h-21a1.5 1.5 0 01-1.5-1.5V4.875a1.5 1.5 0 011.5-1.5z" fill="#26A6D1"/><path d="M3.87 9.375L1.5 14.619h2.837l.352-.836h.804l.352.836h3.123v-.638l.278.638h1.615l.279-.651v.651h6.495l.79-.814.739.814 3.336.007-2.378-2.614L22.5 9.375h-3.284l-.769.8-.716-.8h-7.066l-.607 1.353-.62-1.353H6.605v.616l-.315-.616H3.87zm.549.744h1.383l1.572 3.557v-3.557H8.89l1.214 2.55 1.12-2.55h1.507v3.764h-.918l-.007-2.95-1.337 2.95h-.82l-1.345-2.95v2.95H6.415l-.357-.844H4.125l-.357.843H2.757l1.662-3.763zm9.15 0h3.73l1.14 1.233 1.178-1.233h1.14l-1.733 1.892 1.734 1.87h-1.193l-1.14-1.247-1.184 1.247h-3.672v-3.762zm-8.477.637l-.637 1.503h1.273l-.636-1.503zm9.398.143v.687h2.035v.765H14.49v.75h2.282l1.06-1.104-1.015-1.099H14.49z" fill="#fff"/></svg><view id="icon-1" viewBox="140 0 40 32"/><svg width="40" height="32" fill="none" viewBox="-10 -10 40 32" x="140" xmlns="http://www.w3.org/2000/svg"><path fill-rule="evenodd" clip-rule="evenodd" d="M20 0H0v2a4 4 0 110 8v2h20v-2a4 4 0 110-8V0zm-6.763 6.194a.907.907 0 01.763.893.92.92 0 01-.255.645.887.887 0 01-.632.268.876.876 0 01-.632-.268 1.008 1.008 0 01-.25-.506v.01c-.061-.789-.31-1.168-.766-1.63-.456-.474-.85-.706-1.585-.8h.01a.865.865 0 01-.528-.253.903.903 0 01-.265-.642.915.915 0 01.554-.841.876.876 0 01.975.198c.14.154.227.35.248.558.114.737.28 1.084.777 1.59.498.515.86.684 1.586.778zm-4.071.547a.903.903 0 01.195-.294.888.888 0 01.633-.268.876.876 0 01.632.268.904.904 0 01.264.642.916.916 0 01-.554.841.876.876 0 01-.975-.198.903.903 0 01-.264-.643c0-.12.023-.237.069-.348zM7.219 7.93a.879.879 0 01-.344.065.885.885 0 01-.62-.27.913.913 0 010-1.269.885.885 0 01.62-.271.879.879 0 01.637.26.906.906 0 01.265.645.918.918 0 01-.265.645.89.89 0 01-.293.195z" fill="#C6973A"/></svg><view id="icon-2" viewBox="96 0 44 44"/><svg width="44" height="44" fill="none" viewBox="-10 -10 44 44" x="96" xmlns="http://www.w3.org/2000/svg"><path fill-rule="evenodd" clip-rule="evenodd" d="M7 9a5 5 0 0110 0v10h-1.268A2 2 0 0014 18h-2a2 2 0 100 4h2a2 2 0 001.732-1H17a2 2 0 002-2v-3a3 3 0 003-3v-2a3 3 0 00-3-3h-.07A7.001 7.001 0 005.07 8H5a3 3 0 00-3 3v2a3 3 0 003 3h2V9zm5.898 1.764L12 8l-.898 2.764H8.196l2.35 1.708-.897 2.764L12 13.528l2.351 1.708-.898-2.764 2.351-1.708h-2.906z" fill="#C6973A"/></svg><view id="icon-3" viewBox="0 74.67 44 44"/><svg width="44" height="44" fill="none" viewBox="-10 -10 44 44" y="74.67" xmlns="http://www.w3.org/2000/svg"><path fill-rule="evenodd" clip-rule="evenodd" d="M12 22c5.523 0 10-4.477 10-10S17.523 2 12 2 2 6.477 2 12s4.477 10 10 10zm1.123-11.545L12 7l-1.123 3.455H7.245l2.939 2.135-1.123 3.455L12 13.91l2.939 2.135-1.123-3.455 2.94-2.135h-3.633z" fill="#C6973A"/></svg><view id="icon-4" viewBox="44 74.67 44 44"/><svg width="44" height="44" fill="none" viewBox="-10 -10 44 44" x="44" y="74.67" xmlns="http://www.w3.org/2000/svg"><path fill-rule="evenodd" clip-rule="evenodd" d="M18 4h4v16h-4V4zM2 14h4v6H2v-6zm12-6h-4v12h4V8z" fill="#C6973A"/></svg><view id="lock-blue" viewBox="140 32 36 40"/><svg width="36" height="40" fill="none" viewBox="-10 -10 36 40" x="140" y="32" xmlns="http://www.w3.org/2000/svg"><path fill-rule="evenodd" clip-rule="evenodd" d="M12 8V6a4 4 0 00-8 0v2h8zM2 6v2a2 2 0 00-2 2v8a2 2 0 002 2h12a2 2 0 002-2v-8a2 2 0 00-2-2V6A6 6 0 002 6zm10 4h2v8H2v-8h10zm-2 3a2 2 0 01-1.031 1.75c.02.08.031.164.031.25v1a1 1 0 11-2 0v-1c0-.086.01-.17.031-.25A2 2 0 1110 13z" fill="#3BBBE9"/></svg><view id="lock-grey" viewBox="88 74.67 44 44"/><svg width="44" height="44" fill="none" viewBox="-10 -10 44 44" x="88" y="74.67" xmlns="http://www.w3.org/2000/svg"><path fill-rule="evenodd" clip-rule="evenodd" d="M16 10V8a4 4 0 00-8 0v2h8zM6 8v2a2 2 0 00-2 2v8a2 2 0 002 2h12a2 2 0 002-2v-8a2 2 0 00-2-2V8A6 6 0 006 8zm10 4h2v8H6v-8h10zm-2 3a2 2 0 01-1.031 1.75c.02.08.031.164.031.25v1a1 1 0 11-2 0v-1c0-.086.01-.17.031-.25A2 2 0 1114 15z" fill="#919CB3"/></svg><view id="master" viewBox="0 30.67 51 44"/><svg width="51" height="44" fill="none" viewBox="-10 -10 51 44" y="30.67" xmlns="http://www.w3.org/2000/svg"><g clip-path="url(#hclip0)"><path d="M30.224 23.663v.063h.058a.061.061 0 00.032-.008.028.028 0 00.011-.024.026.026 0 00-.011-.023.055.055 0 00-.032-.008h-.058zm.059-.044c.03 0 .052.007.069.02a.066.066 0 01.024.055c0 .02-.006.035-.02.048a.094.094 0 01-.055.023l.077.088h-.06l-.07-.087h-.024v.087h-.05v-.234h.109zm-.016.314a.199.199 0 00.18-.12.202.202 0 000-.152.203.203 0 00-.104-.105.203.203 0 00-.153 0 .19.19 0 00-.104.104.189.189 0 00-.015.077.19.19 0 00.015.077.184.184 0 00.104.104c.024.01.05.015.077.015zm0-.448a.252.252 0 01.182.075.246.246 0 01.074.177.24.24 0 01-.02.098.26.26 0 01-.136.134.25.25 0 01-.1.02.254.254 0 01-.183-.074.26.26 0 01-.054-.08.241.241 0 010-.195.246.246 0 01.136-.134.256.256 0 01.101-.02zM6.65 22.587c0-.445.291-.81.768-.81.455 0 .762.349.762.81 0 .46-.307.81-.762.81-.477 0-.768-.365-.768-.81zm2.05 0V21.32h-.551v.307c-.175-.228-.44-.37-.8-.37-.71 0-1.266.556-1.266 1.329 0 .773.556 1.329 1.266 1.329.36 0 .625-.143.8-.371v.307h.55v-1.265zm18.6 0c0-.445.291-.81.768-.81.455 0 .762.349.762.81 0 .46-.307.81-.762.81-.477 0-.769-.365-.769-.81zm2.05 0v-2.283h-.551v1.324c-.175-.228-.44-.37-.8-.37-.71 0-1.266.556-1.266 1.329 0 .773.556 1.329 1.266 1.329.36 0 .625-.143.8-.371v.307h.55v-1.265zM15.53 21.75c.355 0 .583.223.641.614H14.86c.059-.366.28-.614.672-.614zm.011-.493c-.742 0-1.26.54-1.26 1.33 0 .805.54 1.329 1.297 1.329.382 0 .73-.095 1.038-.355l-.27-.408a1.21 1.21 0 01-.736.265c-.355 0-.678-.164-.757-.62h1.88c.005-.068.01-.137.01-.211-.005-.79-.492-1.33-1.201-1.33zm6.647 1.33c0-.445.291-.81.768-.81.455 0 .762.349.762.81 0 .46-.307.81-.762.81-.477 0-.768-.365-.768-.81zm2.05 0V21.32h-.551v.307c-.175-.228-.44-.37-.8-.37-.71 0-1.266.556-1.266 1.329 0 .773.556 1.329 1.266 1.329.36 0 .625-.143.8-.371v.307h.55v-1.265zm-5.159 0c0 .768.535 1.329 1.35 1.329.382 0 .636-.085.911-.302l-.264-.445a1.113 1.113 0 01-.663.228c-.44-.005-.762-.323-.762-.81 0-.488.323-.805.762-.81.24 0 .456.078.663.227l.264-.445c-.275-.217-.529-.302-.91-.302-.816 0-1.35.561-1.35 1.33zm7.097-1.33a.747.747 0 00-.668.371v-.307h-.545v2.531h.55v-1.419c0-.419.18-.651.541-.651.111 0 .228.015.344.063l.17-.519a1.172 1.172 0 00-.392-.069zm-14.755.265c-.265-.174-.63-.265-1.033-.265-.641 0-1.054.307-1.054.81 0 .413.307.668.874.747l.26.037c.302.043.444.122.444.265 0 .196-.201.308-.577.308-.381 0-.657-.122-.842-.265l-.26.428c.302.223.684.329 1.096.329.732 0 1.155-.344 1.155-.826 0-.445-.333-.678-.884-.758l-.26-.037c-.238-.032-.429-.079-.429-.249 0-.185.18-.296.482-.296.323 0 .636.122.79.217l.238-.445zm7.102-.265a.746.746 0 00-.667.371v-.307h-.546v2.531h.55v-1.419c0-.419.18-.651.54-.651.112 0 .229.015.345.063l.17-.519a1.172 1.172 0 00-.392-.069zm-4.698.064h-.9v-.768h-.556v.768h-.514v.503h.514v1.155c0 .587.228.937.879.937.239 0 .514-.074.688-.196l-.159-.471a1.018 1.018 0 01-.487.143c-.275 0-.365-.17-.365-.424v-1.144h.9v-.503zm-8.23 2.531v-1.589c0-.598-.381-1-.996-1.006-.323-.005-.656.095-.89.45-.174-.28-.45-.45-.836-.45-.27 0-.535.08-.742.376v-.312h-.55v2.531h.555V22.45c0-.44.244-.673.62-.673.366 0 .55.238.55.668v1.408h.557V22.45c0-.44.254-.673.62-.673.376 0 .556.238.556.668v1.408h.556z" fill="#010E28"/><path d="M30.564 15.434v-.37h-.097l-.111.254-.111-.254h-.097v.37h.068v-.28l.105.241h.07l.105-.241v.28h.068zm-.612 0v-.307h.124v-.063h-.316v.063h.124v.306h.068z" fill="#F79410"/><path d="M19.604 17.024h-8.342V2.032h8.342v14.992z" fill="#FF5F00"/><path d="M11.796 9.527a9.519 9.519 0 013.641-7.496A9.493 9.493 0 009.545-.008C4.28-.008.012 4.261.012 9.527s4.268 9.535 9.533 9.535c2.224 0 4.27-.762 5.892-2.04a9.519 9.519 0 01-3.64-7.495z" fill="#EB001B"/><path d="M30.855 9.527c0 5.266-4.269 9.535-9.534 9.535a9.496 9.496 0 01-5.893-2.04 9.517 9.517 0 003.642-7.495 9.517 9.517 0 00-3.642-7.496 9.496 9.496 0 015.893-2.039c5.265 0 9.534 4.269 9.534 9.535z" fill="#F79E1B"/></g><defs><clipPath id="hclip0"><path fill="#fff" d="M0 0h30.852v24H0z"/></clipPath></defs></svg><view id="visa" viewBox="0 0 52 30.67"/><svg width="52" height="30.67" fill="none" viewBox="-15 -15 78 46" xmlns="http://www.w3.org/2000/svg"><g clip-path="url(#iclip0)"><path d="M20.8 15.31h-3.888L19.344.274h3.888L20.8 15.31zM34.895.64A9.582 9.582 0 0031.408 0c-3.84 0-6.544 2.048-6.56 4.975-.032 2.16 1.935 3.36 3.407 4.08 1.505.736 2.016 1.216 2.016 1.872-.015 1.008-1.216 1.472-2.335 1.472-1.552 0-2.384-.24-3.648-.8l-.512-.24-.545 3.375c.912.416 2.593.784 4.337.8 4.08 0 6.736-2.015 6.768-5.135.015-1.712-1.024-3.023-3.264-4.095-1.36-.688-2.193-1.152-2.193-1.856.016-.64.704-1.296 2.24-1.296a6.606 6.606 0 012.896.576l.352.16.528-3.248zM40.063 9.983l1.553-4.207c-.016.032.32-.88.511-1.44l.272 1.296s.737 3.6.896 4.351h-3.232zm4.8-9.71h-3.008c-.927 0-1.632.271-2.032 1.247l-5.775 13.79h4.08l.816-2.255h4.992c.111.528.464 2.255.464 2.255H48L44.863.273zM13.664.273L9.856 10.527l-.416-2.08c-.704-2.4-2.912-5.007-5.376-6.303l3.488 13.15h4.112L17.776.274h-4.112z" fill="#00579F"/><path d="M6.32.273H.064L0 .577c4.88 1.247 8.112 4.255 9.44 7.871L8.08 1.537C7.856.577 7.168.304 6.32.273z" fill="#FAA61A"/></g><defs><clipPath id="iclip0"><path fill="#fff" d="M0 0h48v15.535H0z"/></clipPath></defs></svg></svg>