<svg width="24" height="24" viewBox="0 0 24 24" fill="none" xmlns="http://www.w3.org/2000/svg">
<path d="M1.49998 3.37465H22.5C23.328 3.37465 24 4.04662 24 4.87537V19.1254C24 19.9534 23.328 20.6253 22.5 20.6253H1.49998C0.671227 20.6254 0 19.9534 0 19.1254V4.87537C0 4.04662 0.671968 3.37465 1.49998 3.37465Z" fill="#26A6D1"/>
<path d="M3.87002 9.37465L1.5 14.6194H4.33725L4.68899 13.7832H5.49298L5.84471 14.6194H8.96773V13.9812L9.24601 14.6194H10.8615L11.1398 13.9677V14.6194H17.6348L18.4245 13.8049L19.164 14.6194L22.5 14.6262L20.1225 12.0117L22.5 9.37465H19.2158L18.447 10.1741L17.7308 9.37465H10.665L10.0583 10.7284L9.43734 9.37465H6.60601V9.99118L6.29105 9.37465C6.29105 9.37465 3.87002 9.37465 3.87002 9.37465ZM4.41901 10.1194H5.80202L7.37406 13.6759V10.1194H8.88909L10.1033 12.6694L11.2223 10.1194H12.7298V13.8829H11.8125L11.8051 10.9339L10.4678 13.8829H9.64726L8.30251 10.9339V13.8829H6.4155L6.05776 13.0392H4.12502L3.76802 13.8822H2.75699L4.41901 10.1194ZM13.569 10.1194H17.2988L18.4395 11.3516L19.617 10.1194H20.7578L19.0245 12.0109L20.7578 13.8807H19.5653L18.4245 12.6341L17.241 13.8807H13.569V10.1194ZM5.0918 10.7562L4.45504 12.2592H5.72783L5.0918 10.7562ZM14.4901 10.8986V11.5857H16.5248V12.3514H14.4901V13.1014H16.7723L17.8328 11.9967L16.8173 10.898H14.4901V10.8986Z" fill="white"/>
</svg>
