<svg width="20" height="12" viewBox="0 0 20 12" fill="none" xmlns="http://www.w3.org/2000/svg">
<path fill-rule="evenodd" clip-rule="evenodd" d="M20 4.57764e-05L1.62115e-06 4.82009e-05L1.14578e-06 2.00005C2.20914 2.00005 4 3.79091 4 6.00005C4 8.20918 2.20914 10 4.20168e-07 10L0 12L20 12L20 10C17.7909 10 16 8.20918 16 6.00004C16 3.79091 17.7909 2.00005 20 2.00004V4.57764e-05ZM13.2367 6.1945C13.4232 6.22606 13.5994 6.31028 13.7342 6.44715C13.9024 6.61648 13.9979 6.8465 14 7.08708C14.002 7.32767 13.9103 7.55931 13.7449 7.73153C13.6623 7.81658 13.5639 7.88411 13.4554 7.93021C13.3468 7.97631 13.2304 8.00004 13.1128 8.00004C12.9951 8.00004 12.8787 7.97631 12.7702 7.93021C12.6617 7.88412 12.5632 7.81658 12.4806 7.73153C12.3517 7.5908 12.2654 7.41539 12.2319 7.22621L12.2319 7.23684C12.1696 6.44746 11.9211 6.0684 11.4652 5.60528C11.0093 5.13153 10.6155 4.89997 9.87972 4.80528L9.89002 4.80528C9.69049 4.78547 9.50381 4.69627 9.36154 4.55278C9.27781 4.46885 9.21133 4.36887 9.16596 4.25862C9.12058 4.14838 9.09721 4.03008 9.09721 3.91059C9.09721 3.7911 9.12058 3.6728 9.16596 3.56256C9.21133 3.45232 9.27781 3.35233 9.36154 3.2684C9.44415 3.1834 9.54255 3.1159 9.65104 3.06983C9.75953 3.02377 9.87595 3.00005 9.99353 3.00005C10.1111 3.00005 10.2275 3.02377 10.336 3.06983C10.4445 3.1159 10.5429 3.1834 10.6255 3.2684C10.7656 3.42213 10.8529 3.61785 10.8742 3.82622C10.9884 4.56309 11.154 4.91043 11.6513 5.41559C12.1487 5.93137 12.5114 6.09981 13.2367 6.1945ZM9.1658 6.74131C9.21117 6.63107 9.27766 6.53108 9.36138 6.44715C9.444 6.3621 9.54242 6.29456 9.65094 6.24847C9.75946 6.20237 9.87591 6.17863 9.99353 6.17863C10.1112 6.17863 10.2276 6.20237 10.3361 6.24847C10.4446 6.29456 10.5431 6.3621 10.6257 6.44715C10.7094 6.53108 10.7759 6.63107 10.8213 6.74131C10.8666 6.85155 10.89 6.96985 10.89 7.08934C10.89 7.20883 10.8666 7.32713 10.8213 7.43737C10.7759 7.54761 10.7094 7.6476 10.6257 7.73153C10.5431 7.81658 10.4446 7.88412 10.3361 7.93021C10.2276 7.97631 10.1112 8.00004 9.99353 8.00004C9.87591 8.00004 9.75946 7.97631 9.65094 7.93021C9.54242 7.88411 9.444 7.81658 9.36138 7.73153C9.27766 7.6476 9.21117 7.54761 9.1658 7.43737C9.12043 7.32713 9.09706 7.20883 9.09706 7.08934C9.09706 6.96985 9.12043 6.85155 9.1658 6.74131ZM7.21922 7.92903C7.10975 7.97382 6.99261 7.99607 6.87461 7.99449C6.64117 7.99009 6.41875 7.89263 6.25519 7.72336C6.09163 7.55409 6 7.32637 6 7.08918C6 6.85199 6.09163 6.62427 6.25519 6.455C6.41875 6.28573 6.64117 6.18843 6.87461 6.18403C6.99261 6.18245 7.10975 6.2047 7.21922 6.24949C7.32869 6.29427 7.42832 6.3607 7.51231 6.44492C7.59631 6.52913 7.663 6.62946 7.70852 6.74007C7.75404 6.85068 7.77748 6.96937 7.77748 7.08926C7.77748 7.20915 7.75404 7.32784 7.70852 7.43845C7.663 7.54906 7.59631 7.64939 7.51231 7.7336C7.42832 7.81782 7.32869 7.88425 7.21922 7.92903Z" fill="#C6973A"/>
</svg>
