<svg width="16" height="20" viewBox="0 0 16 20" fill="none" xmlns="http://www.w3.org/2000/svg">
<path fill-rule="evenodd" clip-rule="evenodd" d="M12 8V6C12 3.79086 10.2091 2 8 2C5.79086 2 4 3.79086 4 6V8H12ZM2 6V8C0.895431 8 0 8.89543 0 10V18C0 19.1046 0.895431 20 2 20H14C15.1046 20 16 19.1046 16 18V10C16 8.89543 15.1046 8 14 8V6C14 2.68629 11.3137 0 8 0C4.68629 0 2 2.68629 2 6ZM12 10H14V18H2V10H4H12ZM10 13C10 13.7532 9.58366 14.4091 8.96856 14.7502C8.98908 14.8301 9 14.9138 9 15V16C9 16.5523 8.55228 17 8 17C7.44772 17 7 16.5523 7 16V15C7 14.9138 7.01092 14.8301 7.03144 14.7502C6.41634 14.4091 6 13.7532 6 13C6 11.8954 6.89543 11 8 11C9.10457 11 10 11.8954 10 13Z" fill="#3BBBE9"/>
</svg>
