<svg width="69" height="50" viewBox="0 0 69 50" fill="none" xmlns="http://www.w3.org/2000/svg">
<path d="M53.6928 50H42.5863H39.5956H38.9497V35.1025H43.822C45.0576 35.1025 45.7877 33.6984 45.0576 32.6874L35.5799 19.5732C34.9761 18.7307 33.7265 18.7307 33.1227 19.5732L23.645 32.6874C22.9149 33.6984 23.631 35.1025 24.8806 35.1025H29.7529V50H29.107H26.1163H13.2407C5.86914 49.5928 0 42.6987 0 35.2289C0 30.0758 2.79416 25.5827 6.93625 23.1536C6.55715 22.1286 6.36057 21.0334 6.36057 19.8821C6.36057 14.6167 10.615 10.3623 15.8804 10.3623C17.0177 10.3623 18.1129 10.5588 19.1379 10.9379C22.1848 4.47908 28.756 0 36.3943 0C46.2791 0.014041 54.4229 7.58214 55.3496 17.2283C62.9458 18.5341 68.7167 25.5687 68.7167 33.5299C68.7167 42.0387 62.0893 49.4103 53.6928 50Z" fill="url(#paint0_linear)"/>
<defs>
<linearGradient id="paint0_linear" x1="34.3583" y1="0" x2="34.3583" y2="50" gradientUnits="userSpaceOnUse">
<stop stop-color="#2E66FF"/>
<stop offset="1" stop-color="#48C4FF"/>
</linearGradient>
</defs>
</svg>
