<svg width="30" height="36" viewBox="0 0 30 36" fill="none" xmlns="http://www.w3.org/2000/svg">
<path d="M17.3914 23.9132C17.2558 23.7692 17.0864 23.6591 16.9085 23.5659C16.5272 23.3625 16.1036 23.2439 15.6885 23.1338V26.3533C16.3663 26.277 17.1372 26.0313 17.4931 25.4044C17.6625 25.0994 17.6964 24.7351 17.6286 24.3962C17.5863 24.2182 17.51 24.0488 17.3914 23.9132Z" fill="white"/>
<path d="M12.5283 18.7622C12.4097 18.9317 12.342 19.1265 12.3165 19.3299C12.2996 19.5332 12.3081 19.7619 12.3843 19.9568C12.4606 20.1432 12.6131 20.2788 12.774 20.3889C12.952 20.5075 13.1553 20.6092 13.3502 20.6854C13.5196 20.7532 13.706 20.821 13.9178 20.8803V17.9658C13.401 18.076 12.8333 18.3132 12.5283 18.7622Z" fill="white"/>
<path d="M17.51 25.3789C17.5015 25.3874 17.5015 25.3958 17.493 25.4043C17.5015 25.3958 17.5015 25.3874 17.51 25.3789Z" fill="white"/>
<path d="M16.8237 7.83299C19.5603 5.52852 21.3903 0.351957 20.2635 0.123205C18.7639 -0.181798 15.519 1.13988 13.9432 1.3771C11.715 1.64822 9.29188 -1.0375 7.92784 0.453624C6.81797 1.67363 8.72424 6.09617 11.698 8.01938C2.81905 12.3826 -9.65215 34.275 12.1132 35.8678C42.2237 38.0706 27.1515 12.0776 16.8237 7.83299ZM19.4078 25.0995C19.3146 25.9552 18.8656 26.7262 18.1878 27.2515C17.4761 27.8022 16.578 28.0648 15.6885 28.1326V29.073C15.6885 29.3272 15.5783 29.5729 15.3919 29.7339C15.1293 29.9626 14.748 30.0219 14.4346 29.8779C14.1211 29.7339 13.9177 29.4119 13.9177 29.073V28.0394C13.7652 28.014 13.6127 27.9801 13.4602 27.9377C12.63 27.709 11.859 27.2599 11.2913 26.6076C11.0118 26.2772 10.783 25.9044 10.622 25.5062C10.5797 25.4045 10.5458 25.2944 10.5119 25.1842C10.4865 25.0826 10.4526 24.9894 10.4441 24.8877C10.4272 24.7183 10.4611 24.5403 10.5373 24.3878C10.6983 24.0744 11.0456 23.888 11.4015 23.9134C11.7488 23.9473 12.0538 24.1845 12.164 24.5149C12.1979 24.6166 12.2233 24.7183 12.2572 24.8199C12.2911 24.9216 12.3419 25.0148 12.3927 25.108C12.4944 25.2944 12.63 25.4553 12.7825 25.6078C13.0959 25.9128 13.4941 26.1077 13.9093 26.2179V22.7103C13.0959 22.4985 12.2572 22.2274 11.5879 21.7106C11.2659 21.4564 10.9863 21.143 10.7999 20.7702C10.6051 20.3804 10.5288 19.9399 10.5288 19.4993C10.5288 19.0588 10.6136 18.6182 10.7915 18.2115C10.9609 17.8303 11.2151 17.4914 11.5201 17.2118C12.1725 16.6103 13.0366 16.2799 13.9093 16.1528V16.0935V15.1954C13.9093 14.9412 14.0194 14.6955 14.2058 14.5346C14.4684 14.3058 14.8497 14.2465 15.1632 14.3905C15.4767 14.5346 15.68 14.8565 15.68 15.1954V16.0935V16.1612C15.7986 16.1782 15.9087 16.1951 16.0273 16.2121C16.8831 16.3646 17.7133 16.7204 18.3403 17.3304C18.6368 17.6185 18.874 17.9658 19.052 18.3471C19.1028 18.4488 19.1452 18.5589 19.179 18.669C19.2129 18.7707 19.2468 18.8808 19.2638 18.9825C19.2892 19.152 19.2638 19.3299 19.1875 19.4909C19.035 19.8128 18.7046 20.0161 18.3488 19.9992C18.0014 19.9822 17.6879 19.7535 17.5608 19.4315C17.5269 19.3384 17.5015 19.2282 17.4676 19.135C17.4253 19.0333 17.3829 18.9402 17.3236 18.8554C17.2135 18.686 17.0694 18.5335 16.9085 18.4149C16.5526 18.1522 16.1205 18.0167 15.6885 17.9404V21.2955C16.1968 21.4141 16.7136 21.5496 17.205 21.7445C17.9421 22.0325 18.6453 22.4816 19.052 23.1932C18.9926 23.0831 18.9249 22.973 19.052 23.1932C19.179 23.4135 19.1197 23.3034 19.052 23.2017C19.3739 23.7778 19.484 24.4556 19.4078 25.0995Z" fill="white"/>
<path d="M17.4846 25.4297C17.4761 25.4382 17.4761 25.4466 17.4677 25.4551C17.4677 25.4466 17.4761 25.4382 17.4846 25.4297Z" fill="white"/>
</svg>
