<svg width="41" height="36" viewBox="0 0 41 36" fill="none" xmlns="http://www.w3.org/2000/svg">
<path d="M31.7692 6.56194C32.5999 6.56194 33.4139 6.34377 34.1271 5.91582L40.8988 1.9132V0.0419561L33.2796 4.48092C32.7006 4.81657 32.0461 4.99278 31.3832 4.98439L21.2969 4.86691C20.7935 4.68231 20.3907 4.56483 20.2396 4.50609C17.0845 3.80123 14.6175 4.07814 12.9393 4.53126C11.6806 4.86691 10.338 4.74104 9.14644 4.19561L0 0V16.7657L0.948209 17.2859C2.34954 18.0495 3.46558 19.2327 4.16205 20.6676L3.62501 21.1039C2.18172 22.1528 1.87124 24.1835 2.81945 25.6184C3.3481 26.3149 4.09492 26.7596 4.95083 26.9107C5.05152 26.9191 5.20256 26.9275 5.31165 26.9275C5.62212 26.9442 5.92421 26.9107 6.18434 26.8687C6.20112 27.5904 6.36894 28.2113 6.7969 28.7987C7.3675 29.5959 8.27375 29.9567 9.24713 30.007C9.49887 30.0238 9.759 30.0322 9.96039 30.049C9.86808 30.8126 10.0863 31.593 10.5646 32.2307C11.0932 32.9272 11.84 33.3719 12.6959 33.523C12.7966 33.5314 12.9477 33.5397 13.0568 33.5397C13.8204 33.5817 14.5504 33.3635 15.1378 32.9356L15.4566 32.6922C15.5322 33.1537 15.6664 33.5733 15.9517 33.9509C16.3797 34.5383 17.0258 34.9327 17.7894 35.0753C17.8901 35.0837 17.9908 35.0837 18.0999 35.0921C18.7124 35.1257 19.3334 34.9495 19.8704 34.5719H19.9208L20.2984 35.1005C20.9613 36.0571 22.3375 36.2837 23.2941 35.6208C24.0912 35.0502 24.4101 33.9341 24.0493 33.0447L24.1164 33.1454C24.7457 34.0768 25.9373 34.4796 26.9778 34.0516C28.1274 33.5817 28.5889 32.3398 28.2868 31.2741C29.0588 32.1384 30.3846 32.3062 31.3412 31.6433L31.3916 31.593C32.3482 30.9301 32.6251 29.663 32.1132 28.656C32.944 29.4196 34.2698 29.5371 35.2264 28.8742C36.3424 28.0603 36.6361 26.4911 35.8222 25.3667L34.6306 23.6633L37.2235 20.6424C37.9032 19.8453 38.7171 19.174 39.6234 18.6453L40.8988 17.9069V15.9098L39.1367 16.9083C38.1297 17.4789 37.2235 18.2174 36.4683 19.0984L33.6824 22.3291C32.8517 21.5655 31.5258 21.448 30.5692 22.1109C29.4532 22.9248 29.1595 24.494 29.9735 25.6184L30.0154 25.7275H29.9651C29.1763 25.1737 28.1022 25.1149 27.2547 25.6856L27.2044 25.7359C26.4575 26.2562 26.1051 27.1624 26.2645 28.0435L25.996 28.2365C25.2492 27.8421 24.3262 27.8421 23.5794 28.3624C22.8913 28.8407 22.5388 29.6882 22.5976 30.4602L21.8592 30.9301C21.3053 30.7958 20.6844 30.9217 20.2061 31.2489C19.6187 31.6769 19.2747 32.3818 19.2914 33.0447L18.9222 33.2796C18.7041 33.4726 18.3432 33.5565 18.0411 33.4894C17.7391 33.4223 17.437 33.2544 17.244 32.9859C17.051 32.7677 16.9671 32.4069 17.0342 32.1048C17.1013 31.8028 17.2691 31.5007 17.5377 31.3077L21.5403 28.2952C21.7501 28.1526 21.8675 27.9512 21.8759 27.6994C21.9011 27.2379 21.5067 26.8435 21.0536 26.8435C20.8774 26.8435 20.7347 26.8855 20.5837 26.9694L14.1896 31.6014C13.8204 31.8363 13.4008 31.9706 12.9477 31.8951C12.4945 31.8195 12.0918 31.593 11.8568 31.2238C11.3282 30.5273 11.4876 29.4616 12.2344 28.9413L19.8536 23.5038C20.0215 23.3528 20.139 23.143 20.139 22.8661C20.1473 22.4298 19.7865 22.0605 19.3502 22.0438C19.0984 22.0354 18.897 22.1277 18.7292 22.3207L11.2694 27.7162C11.0596 27.8085 10.9506 27.9596 10.7911 28.1022C9.89326 28.6728 8.56744 28.547 8.08914 27.9092C7.61085 27.2211 7.71154 26.2981 8.30732 25.7191L9.05414 25.1989L17.3447 19.5432C17.5545 19.4005 17.6719 19.1991 17.6803 18.9474C17.6971 18.6705 17.5628 18.4104 17.3363 18.2509C17.0426 18.0411 16.7489 18.0328 16.4384 18.2174L7.5605 24.2507C7.50176 24.3513 7.40106 24.3933 7.34233 24.4436L6.48642 25.0646C5.78995 25.5933 4.72426 25.4338 4.20401 24.687C3.67536 23.9905 3.83479 22.9248 4.58161 22.4046L21.3221 10.0779C22.6647 10.8666 23.6549 12.4526 23.6549 12.4526C25.2996 17.6048 27.347 17.6468 28.5889 17.0258C29.235 16.7069 29.5287 15.9433 29.3022 15.2553C28.6477 13.2665 28.2701 9.41496 28.2701 9.41496C27.8085 8.4164 26.3317 7.3675 24.687 6.51159L30.0658 6.59551L31.7692 6.56194Z" fill="white"/>
</svg>
