<svg xmlns="http://www.w3.org/2000/svg" width="15" height="14" viewBox="0 0 15 14" fill="none">
<path d="M7.50037 -0.00012207C6.1159 -0.00012207 4.76252 0.410421 3.61138 1.17959C2.46023 1.94876 1.56303 3.04201 1.03321 4.32109C0.503399 5.60018 0.364776 7.00764 0.634872 8.36551C0.904969 9.72337 1.57165 10.9707 2.55062 11.9496C3.52959 12.9286 4.77687 13.5953 6.13474 13.8654C7.4926 14.1355 8.90007 13.9968 10.1792 13.467C11.4582 12.9372 12.5515 12.04 13.3207 10.8889C14.0898 9.73772 14.5004 8.38435 14.5004 6.99988C14.4982 5.14401 13.7601 3.36477 12.4478 2.05247C11.1355 0.74018 9.35623 0.0020011 7.50037 -0.00012207Z" fill="#1A78FA"/>
<path d="M7.46948 2.54791V7.01091V6.45304" stroke="#0A0A0B" stroke-width="1.91271" stroke-linecap="round"/>
<path d="M7.46954 7.01086L5.23804 8.68449" stroke="#0A0A0B" stroke-width="1.91271" stroke-linecap="round"/>
</svg>