<?xml version="1.0" encoding="utf-8"?>
<!-- Generator: Adobe Illustrator 22.0.0, SVG Export Plug-In . SVG Version: 6.00 Build 0)  -->
<svg version="1.1" id="Слой_1" xmlns="http://www.w3.org/2000/svg" xmlns:xlink="http://www.w3.org/1999/xlink" x="0px" y="0px"
	 viewBox="0 0 25 24" style="enable-background:new 0 0 25 24;" xml:space="preserve">
<style type="text/css">
	.st0{fill:#FF8800;}
</style>
<g>
	<path class="st0" d="M24.8,8.4c0-0.7-0.9-1.2-2.5-1.6c0.1-0.1,0.1-0.2,0.1-0.4V3.6h0c-0.1-2.3-9.7-2.4-10.8-2.4S1,1.2,0.8,3.6h0
		v0.1l0,0l0,0v2.7c0,0.8,1,1.4,2.4,1.8c0,0.1,0,0.1,0,0.2h0v0.1l0,0l0,0v2.7c-1.6,0.4-2.4,0.9-2.4,1.6h0v0.1l0,0l0,0v2.7
		c0,0.5,0.5,1,1.3,1.4C2,17,2,17.1,2,17.2h0v0.1l0,0l0,0V20c0,1.3,3,2.2,6.3,2.5c0,0,0,0,0.1,0c0,0,0,0,0,0c0.6,0.1,1.3,0.1,1.9,0.2
		c0,0,0,0,0,0c0,0,0,0,0,0c0.8,0,1.6,0.1,2.4,0.1s1.6,0,2.4-0.1c0,0,0,0,0,0c0,0,0,0,0,0c0.6,0,1.3-0.1,1.9-0.2c0,0,0,0,0,0
		c0,0,0,0,0.1,0c3.3-0.4,6.3-1.2,6.3-2.5v-2.8h0c0-0.5-0.4-0.9-1.3-1.2c0.1-0.1,0.1-0.2,0.1-0.4V13c1.4-0.4,2.4-1,2.4-1.8L24.8,8.4
		L24.8,8.4z M21.6,15.7l-0.1,0.1c-0.2,0.2-0.6,0.4-1,0.6v-1.9c0.5-0.2,0.9-0.3,1.2-0.6v1.7C21.6,15.6,21.6,15.7,21.6,15.7z
		 M12.6,17.6c-0.1,0-0.1,0-0.2,0c-0.1,0-0.3,0-0.4,0v-2c0.1,0,0.2,0,0.3,0c0,0,0,0,0.1,0c0.4,0,0.8,0,1.2,0v2c-0.1,0-0.2,0-0.3,0
		C13.1,17.6,12.9,17.6,12.6,17.6z M10.9,17.6c-0.2,0-0.4,0-0.5,0c0,0,0,0-0.1,0c-0.2,0-0.4,0-0.6,0v-2c0.4,0,0.8,0,1.2,0
		c0,0,0,0,0.1,0c0.1,0,0.2,0,0.3,0v2c-0.1,0-0.2,0-0.2,0C10.9,17.6,10.9,17.6,10.9,17.6z M3.6,16.7C3.6,16.7,3.6,16.7,3.6,16.7
		l0-1.9C4,14.8,4.4,14.9,4.8,15v2c-0.4-0.1-0.7-0.2-1-0.2C3.7,16.7,3.7,16.7,3.6,16.7z M12.1,20c0.1,0,0.2,0,0.3,0v2
		c-0.6,0-1.1,0-1.6,0v-2C11.2,20,11.6,20,12.1,20C12,20,12.1,20,12.1,20z M13.6,20c0.4,0,0.8,0,1.2,0v2c-0.5,0-1,0-1.6,0v-2
		C13.3,20,13.4,20,13.6,20C13.6,20,13.6,20,13.6,20z M16.8,19.8v2c-0.4,0-0.8,0.1-1.2,0.1v-2C16,19.9,16.4,19.8,16.8,19.8z
		 M17.6,19.7c0.4,0,0.8-0.1,1.2-0.2v2c-0.4,0.1-0.8,0.1-1.2,0.2V19.7z M19.6,19.4c0.4-0.1,0.8-0.2,1.2-0.3V21
		c-0.4,0.1-0.8,0.2-1.2,0.3V19.4z M6,19.4v2c-0.4-0.1-0.8-0.2-1.2-0.3v-1.9C5.2,19.2,5.6,19.3,6,19.4z M6.8,19.5
		c0.4,0.1,0.8,0.1,1.2,0.2v2c-0.4-0.1-0.8-0.1-1.2-0.2V19.5z M8.8,19.8c0.4,0,0.8,0.1,1.2,0.1v2c-0.4,0-0.8-0.1-1.2-0.1V19.8z
		 M7.8,17.4c0,0-0.1,0-0.1,0c0,0-0.1,0-0.1,0v-2c0.4,0,0.8,0.1,1.2,0.1v2C8.5,17.5,8.1,17.4,7.8,17.4z M6.8,15.3v2
		c-0.4-0.1-0.8-0.1-1.2-0.2v-2C6,15.2,6.4,15.3,6.8,15.3z M14.7,17.5c-0.1,0-0.2,0-0.3,0v-2c0.4,0,0.8-0.1,1.2-0.1v2
		c-0.2,0-0.5,0.1-0.8,0.1C14.8,17.5,14.7,17.5,14.7,17.5z M16.4,17.3v-2c0.4,0,0.8-0.1,1.2-0.2v2C17.2,17.2,16.8,17.2,16.4,17.3z
		 M18.4,15c0.4-0.1,0.8-0.2,1.2-0.3v1.9c-0.4,0.1-0.8,0.2-1.2,0.3V15z M12.9,13.2c-0.3,0-0.6,0-0.9,0c0,0,0,0,0,0v-2
		c0.4,0,0.8,0,1.2,0c0,0,0,0,0.1,0c0.1,0,0.2,0,0.3,0v2C13.4,13.2,13.2,13.2,12.9,13.2C13,13.2,13,13.2,12.9,13.2z M3.6,7.4V5.5
		C4,5.6,4.4,5.7,4.8,5.8v2c0,0-0.1,0-0.1,0C4.4,7.7,4.2,7.6,4,7.6C3.9,7.5,3.7,7.5,3.6,7.4z M10.9,6.4c0.1,0,0.2,0,0.3,0v2
		c-0.5,0-1.1,0-1.6,0v-2C10,6.4,10.4,6.4,10.9,6.4C10.8,6.4,10.9,6.4,10.9,6.4z M12.4,6.4c0.4,0,0.8,0,1.2,0v2c-0.1,0-0.1,0-0.2,0
		c0,0,0,0,0,0c-0.3,0-0.5,0-0.8,0c0,0-0.1,0-0.1,0c-0.1,0-0.3,0-0.4,0v-2C12.1,6.4,12.2,6.4,12.4,6.4C12.4,6.4,12.4,6.4,12.4,6.4z
		 M21.5,6.6L21.5,6.6l-0.2,0.1c-0.2,0.2-0.5,0.3-1,0.5V5.3c0.5-0.2,0.9-0.3,1.2-0.6v1.7C21.6,6.4,21.6,6.5,21.5,6.6z M16.4,8.1v-2
		c0.4,0,0.8-0.1,1.2-0.2v2C17.2,8,16.8,8,16.4,8.1z M18.4,7.7V5.8c0.4-0.1,0.8-0.2,1.2-0.3v1.9C19.2,7.5,18.8,7.6,18.4,7.7z
		 M15.6,6.2v2c-0.4,0-0.8,0.1-1.2,0.1v-2C14.8,6.3,15.2,6.2,15.6,6.2z M7.6,8.2v-2c0.4,0,0.8,0.1,1.2,0.1v2C8.4,8.3,8,8.2,7.6,8.2z
		 M6.8,6.1v2c-0.1,0-0.2,0-0.2,0C6.5,8,6.5,8,6.4,8C6.2,8,6,8,5.7,7.9c0,0-0.1,0-0.1,0v-2C6,6,6.4,6.1,6.8,6.1z M11.1,13.1
		c-0.1,0-0.1,0-0.2,0c-0.3,0-0.5,0-0.8-0.1c-0.1,0-0.1,0-0.2,0c0,0,0,0,0,0v-2c0.4,0,0.8,0.1,1.2,0.1L11.1,13.1
		C11.2,13.1,11.1,13.1,11.1,13.1z M8.5,12.8c-0.2,0-0.3-0.1-0.5-0.1v-2c0.4,0.1,0.8,0.1,1.2,0.2v2C9,12.9,8.7,12.8,8.5,12.8
		C8.5,12.8,8.5,12.8,8.5,12.8z M7.2,10.6v1.9c-0.4-0.1-0.8-0.2-1.2-0.3v-1.9C6.4,10.4,6.8,10.5,7.2,10.6z M5.2,10.1V12
		c-0.6-0.2-1-0.5-1.2-0.7l0,0c0,0,0,0,0,0V9.5C4.3,9.7,4.7,9.9,5.2,10.1z M14.8,11.2c0.4,0,0.8,0,1.2,0v2c-0.5,0-1.1,0-1.6,0v-2
		C14.5,11.2,14.6,11.2,14.8,11.2C14.8,11.2,14.8,11.2,14.8,11.2z M20,12.7c-0.2,0-0.4,0.1-0.5,0.1c-0.1,0-0.2,0-0.3,0
		c-0.1,0-0.2,0-0.3,0v-2c0.4,0,0.8-0.1,1.2-0.2L20,12.7C20,12.7,20,12.7,20,12.7z M17.3,13c-0.1,0-0.3,0-0.5,0v-2
		c0.4,0,0.8-0.1,1.2-0.1v2C17.8,13,17.5,13,17.3,13C17.3,13,17.3,13,17.3,13z M21.8,12.3c-0.2,0.1-0.4,0.1-0.6,0.2
		c-0.1,0-0.2,0-0.3,0.1c0,0-0.1,0-0.1,0v-2c0.4-0.1,0.8-0.2,1.2-0.3v1.9C22,12.3,21.9,12.3,21.8,12.3z M24,8.4c0,0.3-0.7,0.6-1.8,1
		l0,0c-1.4,0.4-3.6,0.8-6.4,1c-0.1,0-0.3,0-0.4,0c-0.1,0-0.2,0-0.4,0c-0.3,0-0.7,0-1,0s-0.7,0-1,0c-0.1,0-0.2,0-0.4,0
		c-0.1,0-0.3,0-0.4,0c-2.8-0.1-5-0.5-6.4-1l0,0C4.7,9,4.1,8.7,4,8.4c0,0,0,0,0,0c0,0,0.1,0,0.1,0c0.2,0,0.3,0.1,0.5,0.1
		c0.8,0.2,1.7,0.3,2.6,0.4c0,0,0,0,0,0c0,0,0,0,0,0c0.6,0.1,1.3,0.1,2,0.2c0,0,0,0,0,0c0,0,0,0,0,0c0.5,0,1,0.1,1.5,0.1
		c0.3,0,0.6,0,0.9,0c0.2,0,0.4,0,0.6,0c2.9,0,5.6-0.4,7.5-0.9c0.1,0,0.2,0,0.3-0.1c0.1,0,0.1,0,0.2,0c0.1,0,0.3-0.1,0.4-0.1
		c0,0,0,0,0.1,0c0.1,0,0.2-0.1,0.3-0.1c0,0,0.1,0,0.1,0c0.1,0,0.2-0.1,0.3-0.2c0,0,0.1,0,0.1-0.1c0,0,0.1-0.1,0.1-0.1
		c0,0,0.1,0,0.1,0C23.5,7.8,24,8.2,24,8.4z M11.6,2c6.6,0,9.9,1,10,1.6c0,0.3-0.7,0.6-1.7,1l0,0c-1.4,0.4-3.6,0.8-6.4,1
		c-0.1,0-0.3,0-0.4,0c-0.1,0-0.2,0-0.4,0c-0.3,0-0.7,0-1,0c-0.3,0-0.7,0-1,0c-0.1,0-0.2,0-0.4,0c-0.1,0-0.3,0-0.4,0
		C7,5.4,4.8,5,3.4,4.6l0,0c-1.1-0.3-1.7-0.7-1.7-1C1.7,3,5,2,11.6,2z M1.6,6.4V4.7c0.3,0.2,0.7,0.4,1.2,0.6v1.9
		C2,6.9,1.6,6.6,1.6,6.4z M3.5,11.9C3.6,11.9,3.6,11.9,3.5,11.9c0.6,0.6,1.7,1,3.1,1.3c0,0,0.1,0,0.1,0c0.1,0,0.2,0,0.3,0.1
		c1.3,0.3,2.8,0.5,4.5,0.6c0,0,0,0,0,0s0,0,0,0c0.5,0,1.1,0.1,1.7,0.1c0.3,0,0.5,0,0.7,0c0.3,0,0.6,0,0.8,0c0.5,0,1,0,1.5-0.1
		c0,0,0,0,0,0c0,0,0,0,0,0c1.7-0.1,3.3-0.3,4.6-0.6c-0.3,0.2-0.7,0.3-1.2,0.5l0,0c-1.5,0.5-3.9,0.9-6.9,1c-0.1,0-0.2,0-0.3,0
		c-0.1,0-0.2,0-0.3,0c-0.3,0-0.5,0-0.8,0c-0.3,0-0.7,0-1,0c-0.1,0-0.2,0-0.4,0c-0.1,0-0.3,0-0.4,0c-2.8-0.1-5-0.5-6.4-1l0,0
		c-1.1-0.3-1.7-0.7-1.8-1C1.7,12.7,2.1,12.3,3.5,11.9z M1.6,15.6v-1.7c0.3,0.2,0.7,0.4,1.2,0.6v1.9l-0.2-0.1l0,0
		C1.9,16,1.6,15.8,1.6,15.6z M2.8,20v-1.7c0.3,0.2,0.7,0.4,1.2,0.6v1.9C3.2,20.5,2.8,20.2,2.8,20z M21.6,20.8v-1.9
		c0.5-0.2,0.9-0.3,1.2-0.6V20C22.8,20.2,22.4,20.5,21.6,20.8z M22.8,17.2c0,0.3-0.7,0.6-1.8,1l0,0c-1.4,0.4-3.6,0.8-6.4,1
		c-0.1,0-0.3,0-0.4,0c-0.1,0-0.2,0-0.4,0c-0.3,0-0.7,0-1,0s-0.7,0-1,0c-0.1,0-0.2,0-0.4,0c-0.1,0-0.3,0-0.4,0c-2.8-0.1-5-0.5-6.4-1
		l0,0c-1.1-0.3-1.7-0.7-1.7-0.9c0.1,0,0.2,0.1,0.4,0.1c0,0,0,0,0,0c0.1,0,0.2,0.1,0.3,0.1c0,0,0.1,0,0.1,0c0.1,0,0.1,0,0.2,0.1
		c1.5,0.4,3.3,0.6,5.3,0.8c0,0,0,0,0,0c0,0,0,0,0,0c0.6,0,1.3,0.1,1.9,0.1c0.2,0,0.3,0,0.5,0c0.2,0,0.4,0,0.7,0c0.6,0,1.2,0,1.7-0.1
		c0,0,0,0,0,0c0,0,0,0,0,0c0.7,0,1.4-0.1,2-0.2c0,0,0,0,0,0c0,0,0,0,0,0c0.7-0.1,1.4-0.2,2-0.3c0.1,0,0.3,0,0.4-0.1c0,0,0.1,0,0.1,0
		c1.2-0.2,2.2-0.6,2.9-0.9c0,0,0.1,0,0.1-0.1c0,0,0.1-0.1,0.1-0.1c0,0,0.1,0,0.1-0.1C22.6,16.9,22.8,17.1,22.8,17.2z M22.8,12v-1.9
		c0.5-0.2,0.9-0.3,1.2-0.6v1.7C24,11.4,23.6,11.7,22.8,12z"/>
</g>
</svg>
