<?xml version="1.0" encoding="utf-8"?>
<!-- Generator: Adobe Illustrator 22.0.0, SVG Export Plug-In . SVG Version: 6.00 Build 0)  -->
<svg version="1.1" id="Слой_1" xmlns="http://www.w3.org/2000/svg" xmlns:xlink="http://www.w3.org/1999/xlink" x="0px" y="0px"
	 viewBox="0 0 24.9 25.1" style="enable-background:new 0 0 24.9 25.1;" xml:space="preserve">
<style type="text/css">
	.st0{fill:#FF8800;}
</style>
<g>
	<g id="Layer_1_2_">
		<g>
			<g>
				<path class="st0" d="M24.5,12.5c0-6.6-5.4-12-12-12s-12,5.4-12,12s5.4,12,12,12c0.6,0,1.1-0.5,1.1-1.1v-9.8h9.8
					C24,13.6,24.5,13.1,24.5,12.5z"/>
			</g>
			<g>
				<path class="st0" d="M23.9,14.7h-8.7c-0.3,0-0.5,0.2-0.5,0.5v8.7c0,0.2,0.1,0.3,0.2,0.4c0.1,0.1,0.2,0.1,0.4,0.1c0,0,0,0,0.1,0
					c4.8-0.5,8.6-4.4,9.1-9.1c0-0.2,0-0.3-0.1-0.4C24.2,14.7,24,14.7,23.9,14.7z M15.8,23.3v-7.5h7.5C22.6,19.6,19.6,22.6,15.8,23.3
					z"/>
			</g>
		</g>
	</g>
</g>
</svg>
