<?xml version="1.0" encoding="utf-8"?>
<!-- Generator: Adobe Illustrator 22.0.0, SVG Export Plug-In . SVG Version: 6.00 Build 0)  -->
<svg version="1.1" id="Слой_1" xmlns="http://www.w3.org/2000/svg" xmlns:xlink="http://www.w3.org/1999/xlink" x="0px" y="0px"
	 viewBox="0 0 25.9 25" style="enable-background:new 0 0 25.9 25;" xml:space="preserve">
<style type="text/css">
	.st0{fill:#FF8800;}
</style>
<g>
	<path class="st0" d="M25.4,8.3c-0.4-4-3.2-6.9-6.8-6.9c-2.4,0-4.5,1.3-5.8,3.3c-1.2-2.1-3.3-3.3-5.6-3.3c-3.6,0-6.4,2.9-6.8,6.9
		c0,0.2-0.1,1.1,0.2,2.6c0.5,2.2,1.7,4.2,3.5,5.8l8.7,7.9l8.9-7.9c1.7-1.6,2.9-3.6,3.5-5.8C25.5,9.4,25.4,8.5,25.4,8.3z M24.2,10.7
		c-0.5,2-1.6,3.8-3.2,5.3l-8.2,7.3L4.8,16c-1.6-1.5-2.7-3.3-3.2-5.3C1.3,9.3,1.4,8.5,1.4,8.5l0,0c0.3-3.5,2.8-6.1,5.8-6.1
		c2.3,0,4.2,1.4,5.2,3.6l0.4,1l0.4-1c0.9-2.2,3-3.6,5.3-3.6c3.1,0,5.5,2.6,5.8,6.1C24.4,8.5,24.6,9.3,24.2,10.7z"/>
</g>
</svg>
